<?xml version="1.0" standalone="no"?><!DOCTYPE svg PUBLIC "-//W3C//DTD SVG 1.1//EN" "http://www.w3.org/Graphics/SVG/1.1/DTD/svg11.dtd" ><svg xmlns="http://www.w3.org/2000/svg"><metadata></metadata><defs><font id="Hanyi HYMiaoHunTiW Regular v5.00" horiz-adv-x="1000"><font-face font-family="HYMiaoHunTiW" font-weight="400" font-stretch="normal" units-per-em="1000" panose-1="0 2 6 0 4 1 1 1 1 1" ascent="916" descent="-301" x-height="1" bbox="-83 -273 759 832" underline-thickness="50" underline-position="-273" unicode-range="U+002c-ff1a" /><missing-glyph horiz-adv-x="1000" d="M114 184 q22 258 28 518 q-3 14 -10 27 q-14 13 -32 16 q-19 1 -34 -9 q-17 -14 -15 -34 q4 -260 27 -518 q-2 -17 15 -18 q8 -2 14 5 q5 5 7 13 ZM125 -16 q16 15 18 37 q-1 21 -16 36 q-16 13 -35 9 q-18 -6 -26 -22 q-7 -16 -5 -32 q2 -17 16 -28 q11 -7 25 -8 q2 3 6 1 l17 7 Z" /><glyph glyph-name="" unicode="," d="M60 -89 q37 8 66 32 q27 27 44 62 q13 36 13 75 q-5 29 -17 56 q-8 9 -18 14 q-12 4 -24 1 q-12 -6 -20 -16 q-7 -13 -5 -27 q4 -26 7 -51 q1 -23 -3 -45 q-16 -50 -50 -91 q-5 -2 -1 -7 q2 -4 8 -3 Z" /><glyph glyph-name="" unicode="." d="M70 41 q25 -23 56 -9 q26 13 28 43 q-2 28 -23 48 q-20 16 -44 12 q-17 -5 -28 -18 q-8 -12 -8 -26 q-2 -11 4 -20 q1 -18 15 -30 Z" /><glyph glyph-name="" unicode="0" d="M457 553 q-14 33 -32 64 q-19 26 -42 49 q-18 14 -38 26 q-19 10 -39 15 q-33 4 -66 1 q-41 -9 -74 -33 q-33 -26 -55 -60 q-23 -32 -33 -69 q-54 -182 -1 -363 q8 -38 25 -72 q15 -30 38 -54 q26 -32 66 -45 q35 -13 73 -12 q22 3 43 11 q26 12 48 31 q41 38 66 90 q49 106 54 223 q1 101 -33 198 ZM363 136 q-14 -27 -34 -49 q-18 -20 -42 -28 q-22 -5 -43 1 q-24 6 -42 23 q-35 31 -48 76 q-21 51 -25 106 q-9 62 -4 126 q-1 43 7 86 q6 38 22 75 q16 39 44 72 q14 17 34 27 q23 8 48 7 q22 -3 40 -16 q25 -23 45 -51 q13 -24 24 -48 q10 -31 18 -61 q30 -180 -44 -346 Z" /><glyph glyph-name="" unicode="1" d="M70 675 l-8 -171 q-6 -129 -10 -257 q-3 -106 0 -211 q-1 -11 7 -17 q10 -8 24 -8 q14 -2 28 6 q9 7 12 19 q4 105 6 211 q-2 150 -8 300 q-5 63 -5 128 q-7 14 -22 16 q-11 -1 -19 -5 q-5 -5 -5 -11 Z" /><glyph glyph-name="" unicode="2" d="M105 463 q1 33 11 66 q8 30 28 55 q19 19 45 32 q26 10 56 10 q27 -3 52 -13 q20 -10 36 -25 q29 -39 37 -86 q3 -32 -1 -62 q-6 -38 -16 -74 q-19 -64 -47 -123 q-27 -55 -66 -100 q-31 -34 -69 -59 q-41 -25 -87 -32 l-8 -2 q-12 -2 -21 -10 q-7 -7 -5 -15 q2 -11 10 -18 q10 -7 24 -8 l328 -3 q13 2 26 7 q10 8 15 22 q-2 13 -9 24 q-15 10 -32 12 q-100 3 -198 -1 q91 55 150 146 q48 76 75 163 q22 74 9 151 q-11 33 -26 64 q-22 32 -50 58 q-33 23 -72 34 q-34 4 -68 1 q-42 -8 -79 -29 q-28 -18 -47 -44 q-20 -32 -26 -67 q-8 -36 -3 -72 q3 -13 16 -12 q9 0 12 10 Z" /><glyph glyph-name="" unicode="3" d="M149 526 q-2 21 6 42 q11 18 28 33 q40 27 89 29 q23 1 47 -5 q21 -8 40 -20 q25 -24 32 -58 q0 -24 -7 -45 q-13 -27 -36 -44 q-28 -19 -59 -29 q-35 -11 -70 -17 l-31 -5 l0 -1 q-14 -4 -22 -14 q-5 -11 0 -20 q6 -11 18 -15 q12 -5 25 -2 q40 4 80 0 q45 -8 83 -34 q32 -26 50 -63 q16 -38 12 -78 q-6 -40 -30 -71 q-25 -30 -60 -45 q-33 -15 -68 -16 q-40 1 -73 21 q-31 19 -49 51 q-19 31 -20 67 q-3 11 -11 18 q-13 8 -28 11 q-16 1 -30 -6 q-13 -9 -14 -23 q-2 -41 14 -78 q20 -45 58 -76 q39 -33 89 -44 q41 -9 84 -5 q66 10 122 47 q29 20 51 49 q18 23 28 51 q23 86 -20 166 q-25 37 -60 65 q-31 19 -63 35 q46 21 74 64 q28 44 22 97 q-11 46 -46 79 q-37 25 -79 36 q-29 4 -57 4 q-29 -3 -56 -10 q-52 -17 -87 -56 q-14 -19 -21 -41 q-5 -24 2 -47 q6 -15 22 -13 q8 -1 15 4 q4 5 6 12 Z" /><glyph glyph-name="" unicode="4" d="M369 668 q-121 -113 -209 -252 q-72 -116 -108 -246 q-5 -14 4 -24 q13 -14 32 -12 q127 -11 256 -4 q-3 -63 -1 -125 q-1 -13 10 -21 q12 -6 26 -8 q15 -1 30 6 q11 9 15 23 l0 130 q35 1 70 6 q15 1 28 12 q8 8 8 21 q-3 11 -13 19 q-11 5 -23 7 l-71 -3 l-3 131 q-3 31 -1 64 q1 76 -2 152 q-5 54 -11 108 l-2 4 q-4 11 -15 15 q-11 2 -20 -3 ZM132 189 q28 103 79 198 q61 112 145 209 q-10 -99 -8 -197 l0 -71 l-3 -134 q-107 -7 -213 -5 Z" /><glyph glyph-name="" unicode="5" d="M142 647 q-6 -74 -19 -146 q-11 -63 -17 -126 q0 -17 16 -23 q15 -8 32 -4 l9 2 q41 13 85 20 q32 4 63 -8 q21 -11 37 -29 q20 -27 34 -58 q26 -83 -19 -156 q-21 -31 -51 -51 q-30 -22 -66 -25 q-24 -2 -45 7 q-20 7 -35 23 q-21 17 -35 41 q-17 25 -27 54 q-6 7 -14 12 q-12 4 -23 2 q-9 -3 -14 -10 q-5 -8 -2 -15 q10 -39 30 -74 q17 -29 43 -51 q45 -38 105 -43 q58 -1 111 25 q53 27 88 76 q38 55 43 123 q1 58 -26 110 q-17 26 -38 48 q-29 25 -63 39 q-38 12 -76 14 q-44 -2 -86 -9 q1 102 -6 204 l34 -3 q68 -8 137 -8 q44 -2 88 0 q10 -1 19 5 q9 7 13 19 q0 10 -7 18 q-11 8 -25 9 q-133 4 -264 -6 q-9 4 -18 4 q-10 -2 -11 -10 Z" /><glyph glyph-name="" unicode="6" d="M445 540 q1 24 -7 47 q-11 28 -34 48 q-47 37 -107 36 q-69 -2 -125 -41 q-53 -41 -80 -100 q-33 -76 -39 -158 q-8 -93 8 -183 q4 -34 17 -64 q12 -34 35 -60 q22 -31 56 -49 q28 -16 60 -24 q62 -12 124 4 q33 13 61 37 q24 25 44 55 q32 63 34 136 q-2 33 -9 66 q-11 28 -26 54 q-45 51 -109 77 q-63 22 -128 13 q-47 -10 -87 -33 l2 9 q4 50 23 97 q12 32 35 60 q26 29 64 43 q36 13 76 10 q36 -4 62 -29 q17 -23 22 -51 q2 -10 12 -10 q11 -1 16 10 ZM123 263 q-2 23 7 45 q12 26 35 46 q18 16 42 24 q29 8 61 9 q51 -5 93 -37 q39 -34 56 -83 q3 -22 2 -43 q-5 -40 -21 -76 q-12 -26 -28 -48 q-16 -22 -37 -37 q-31 -23 -69 -20 q-48 8 -80 43 q-31 30 -46 72 q-17 48 -16 99 q1 2 1 6 Z" /><glyph glyph-name="" unicode="7" d="M62 621 q60 -15 123 -16 q96 -3 193 2 l-38 -208 q-21 -102 -39 -204 q-5 -25 -11 -48 q-10 -35 -17 -70 q-6 -30 -7 -59 q3 -20 25 -23 q11 -1 23 3 q11 3 18 14 q22 59 30 123 q4 31 11 62 q19 100 37 202 q22 116 43 234 q-2 9 -9 16 q-12 7 -25 10 q-59 -4 -117 -5 q-117 -2 -233 -9 q-12 0 -18 -9 q-2 -5 1 -9 q3 -6 10 -6 Z" /><glyph glyph-name="" unicode="8" d="M408 307 q-36 21 -74 38 q42 29 80 65 q23 21 38 50 q22 43 16 92 q-8 45 -40 78 q-40 35 -91 46 q-49 9 -97 2 q-54 -8 -99 -36 q-44 -30 -61 -79 q-16 -53 1 -104 q16 -48 56 -80 q31 -31 72 -48 q-56 -38 -105 -82 q-28 -24 -43 -57 q-20 -48 -3 -96 q16 -46 55 -74 q19 -14 42 -23 q34 -12 70 -17 q71 -10 141 8 q47 16 88 46 q42 32 57 84 q7 50 -15 96 q-16 25 -35 48 q-26 23 -53 43 ZM423 106 q-36 -43 -88 -60 q-51 -17 -104 -10 q-28 3 -52 16 q-25 13 -40 37 q-30 50 1 100 q15 21 36 40 q30 28 65 52 l29 21 l4 2 l92 -45 q23 -15 44 -34 q16 -17 26 -39 q11 -44 -13 -80 ZM183 437 q-32 34 -31 82 q1 41 29 73 q45 42 108 42 q55 0 96 -37 q16 -22 22 -49 q-2 -26 -12 -49 q-21 -34 -48 -61 q-37 -34 -77 -62 q-29 10 -52 29 q-22 12 -35 32 Z" /><glyph glyph-name="" unicode="9" d="M75 136 q-8 -35 9 -66 q25 -43 72 -60 q50 -21 106 -18 q57 5 106 36 q29 23 53 53 q20 30 34 65 q16 46 23 96 q7 57 10 115 q4 69 0 138 q-5 29 -11 59 q-8 28 -21 55 q-23 38 -60 63 q-49 25 -103 27 q-64 1 -121 -24 q-31 -18 -56 -42 q-23 -26 -38 -56 q-29 -63 -27 -131 q0 -33 11 -63 q7 -30 25 -55 q20 -34 54 -55 q40 -28 89 -33 q48 -7 95 7 q46 11 85 40 q-8 -61 -26 -119 q-14 -37 -33 -70 q-16 -23 -37 -39 q-24 -16 -52 -21 q-38 -6 -74 5 q-35 8 -60 34 q-26 21 -27 55 q-5 8 -15 10 q-9 1 -11 -6 ZM221 294 q-28 8 -48 29 q-27 24 -37 58 q-23 62 -4 127 q8 33 26 63 q16 27 43 45 q43 28 96 24 q44 -5 78 -35 q22 -27 33 -60 q10 -53 9 -106 l0 -44 q-9 -28 -26 -49 q-22 -27 -51 -45 q-31 -17 -64 -18 q-29 0 -55 11 Z" /><glyph glyph-name="" unicode="a" d="M207 712 q-95 -149 -145 -317 q-56 -187 -51 -381 q-1 -10 7 -16 q10 -7 24 -9 q14 0 28 7 q9 6 12 18 q13 159 40 318 q46 -5 94 -6 q70 -2 142 0 q31 -152 34 -307 q0 -11 8 -18 q12 -8 28 -10 q16 -1 30 7 q11 7 13 21 q-7 187 -53 370 q-18 57 -37 114 q-17 46 -42 90 q-40 67 -98 120 q-6 3 -11 2 q-7 3 -14 2 q-7 -1 -9 -5 ZM229 687 l33 -83 l50 -123 q19 -52 34 -105 q-109 1 -217 -8 q32 165 100 319 Z" /><glyph glyph-name="" unicode="b" d="M77 674 q-14 -163 -19 -326 l-3 -65 q-5 -77 -4 -153 q-2 -55 4 -108 q3 -22 24 -26 q24 -4 43 11 q63 -24 132 -20 q41 6 81 19 q37 15 71 38 q32 23 57 54 q22 29 39 63 q13 32 17 68 q1 34 -8 67 q-20 48 -63 78 q-56 34 -120 47 q56 20 97 64 q31 35 36 84 q-1 38 -21 71 q-27 27 -63 41 q-28 9 -57 14 q-32 4 -64 6 q-78 0 -155 -7 q-8 -1 -11 -7 q-11 -3 -13 -13 ZM129 348 l-2 42 q47 -4 94 4 q64 -5 126 -27 q46 -19 80 -56 q23 -39 17 -83 q-11 -52 -41 -94 q-24 -31 -54 -54 q-32 -22 -69 -33 q-75 -20 -149 -3 q4 121 0 243 q-2 30 -2 61 ZM112 667 q58 4 118 1 q46 -5 92 -17 q25 -11 45 -31 q14 -26 10 -55 q-8 -26 -23 -47 q-26 -29 -61 -44 q-40 -17 -81 -25 q-43 -8 -86 -9 q-5 113 -14 227 Z" /><glyph glyph-name="" unicode="c" d="M459 593 q-5 27 -20 51 q-27 31 -65 45 q-44 15 -89 14 q-49 -2 -92 -22 q-39 -19 -69 -49 q-28 -28 -45 -63 q-23 -46 -32 -96 q-14 -69 -16 -138 q-3 -56 8 -111 q6 -46 23 -88 q28 -69 89 -112 q32 -24 71 -34 q46 -9 93 1 q44 12 79 42 q34 29 53 72 q1 11 -4 21 q-10 9 -22 12 q-25 6 -42 -12 l-9 -12 q-19 -30 -44 -53 q-18 -16 -40 -20 q-20 -3 -38 2 q-18 4 -32 15 q-21 12 -36 31 q-18 18 -29 41 q-25 41 -32 89 q-13 52 -9 107 q-1 69 13 138 q8 40 28 77 q18 38 50 67 q32 28 75 37 q44 9 88 -4 q46 -17 80 -52 q4 -4 10 -2 q5 0 5 6 Z" /><glyph glyph-name="" unicode="d" d="M60 664 q30 4 61 5 q-17 -194 -18 -387 q-2 -122 8 -243 q-27 0 -52 5 q-14 1 -26 -3 q-9 -6 -12 -15 q-2 -10 4 -17 q7 -8 18 -8 q108 -21 217 -2 q83 25 148 83 q55 60 84 137 q22 78 21 160 q-8 90 -45 173 q-44 69 -113 113 q-148 63 -305 28 q-15 -3 -15 -17 q1 -7 7 -10 q8 -4 18 -2 ZM159 668 q48 -6 95 -22 q47 -18 86 -49 q40 -41 67 -92 q24 -63 29 -129 q3 -58 -9 -114 q-17 -56 -46 -104 q-35 -47 -83 -78 q-61 -32 -129 -40 q7 121 7 243 q-5 192 -17 385 Z" /><glyph glyph-name="" unicode="e" d="M73 665 q-14 -171 -19 -341 q-6 -154 -3 -307 q-1 -16 13 -23 q12 -7 28 -8 q58 1 117 -1 l142 -2 l94 4 q14 3 26 11 q10 8 12 23 q-4 11 -14 19 q-12 5 -24 6 q-157 7 -314 3 q-11 154 -12 310 q161 -19 325 -14 q13 -1 25 7 q7 6 10 17 q-1 11 -8 20 q-13 9 -27 11 q-164 7 -326 -9 q-3 131 -7 262 q165 -20 333 -15 q13 -1 25 7 q7 6 10 17 q-1 11 -8 20 q-13 9 -27 11 q-179 7 -357 -12 q-11 -3 -13 -12 q-2 -2 -1 -4 Z" /><glyph glyph-name="" unicode="f" d="M80 663 l-4 -43 q-18 -177 -25 -354 q-4 -129 10 -257 q1 -9 8 -16 q10 -7 24 -9 q14 -1 26 6 q10 8 14 19 q1 167 -5 335 q160 -19 322 -14 q13 -1 25 7 q7 6 10 17 q-1 13 -11 22 q-11 8 -24 10 q-162 4 -323 -9 l-13 274 q167 -21 336 -15 q13 -1 25 7 q7 6 10 17 q-1 11 -8 20 q-13 9 -27 11 q-84 3 -168 2 q-95 -6 -189 -13 q-7 -1 -12 -5 q-5 -6 -1 -12 Z" /><glyph glyph-name="" unicode="g" d="M244 342 q84 -11 169 -11 q0 -53 -7 -104 q-8 -47 -26 -89 q-15 -31 -39 -54 q-27 -24 -61 -33 q-16 -4 -32 -5 q-17 -3 -31 5 q-15 6 -25 17 l-22 25 q-25 27 -36 62 q-28 69 -29 144 q-5 64 5 128 q7 57 36 109 q23 48 64 85 q31 26 71 36 q24 1 49 -2 q28 -9 54 -25 q40 -36 52 -89 q3 -15 19 -13 q13 0 17 14 q-2 43 -26 79 q-29 35 -68 58 q-45 22 -95 21 q-42 -4 -79 -20 q-44 -23 -78 -57 q-31 -34 -51 -74 q-25 -55 -35 -113 q-12 -69 -9 -137 q1 -64 19 -124 q15 -57 48 -106 q25 -37 63 -59 q43 -22 93 -24 q52 0 99 25 q45 28 73 74 l3 -73 q-1 -10 7 -14 q8 -5 19 -7 q10 2 21 5 q9 5 11 16 l0 21 l-3 169 q-2 64 -11 128 q31 -3 64 -1 q10 0 20 6 q7 4 9 14 q-2 9 -7 17 q-10 6 -22 8 q-146 4 -290 -5 q-14 -3 -17 -15 q-2 -5 2 -8 q5 -5 12 -4 Z" /><glyph glyph-name="" unicode="h" d="M453 689 l-14 -288 q-160 -6 -318 -15 q-10 151 -11 303 q-5 11 -18 13 q-9 0 -16 -4 q-5 -4 -5 -9 l-6 -88 q-13 -188 -14 -375 q-2 -110 11 -219 q2 -11 11 -18 q11 -4 24 -6 q10 2 19 7 q8 7 11 17 q3 173 -4 346 q156 -8 314 -6 q-11 -171 4 -340 q1 -9 9 -16 q9 -5 20 -7 q12 1 23 6 q9 6 13 17 q6 86 5 174 q-2 138 -9 277 q-6 115 -10 231 q-5 11 -18 13 q-9 0 -16 -4 q-5 -4 -5 -9 Z" /><glyph glyph-name="" unicode="i" d="M52 -8 l103 -6 q14 -4 29 -1 l108 -4 q11 2 22 6 q8 8 12 19 q-1 11 -8 21 q-12 8 -26 8 l-85 -2 q4 118 4 237 q-2 148 -9 297 l-3 80 q46 -2 93 -1 q10 0 20 5 q8 7 12 18 q-1 10 -7 19 q-12 7 -25 9 q-17 -3 -34 -1 q-112 2 -222 -8 q-13 -3 -15 -15 q-2 -7 3 -12 q5 -5 12 -6 q58 -8 117 -7 q-3 -81 -7 -160 l-10 -259 q-3 -100 0 -199 q-43 -1 -84 -5 q-8 -2 -15 -5 q-7 -4 -6 -10 q-2 -7 4 -11 q7 -5 17 -7 Z" /><glyph glyph-name="" unicode="j" d="M1 113 q10 -29 27 -54 q13 -23 33 -41 q33 -29 77 -40 q54 -12 106 7 q53 20 89 65 q27 37 41 82 q16 63 19 129 q1 27 4 54 q5 93 7 188 q1 72 -6 144 q38 -1 76 1 q9 -1 18 4 q8 5 11 15 q-1 9 -7 17 q-10 7 -22 10 q-74 3 -148 2 q-64 -2 -126 -10 q-12 -4 -14 -15 q1 -12 14 -12 q66 -11 133 -11 q3 -111 2 -222 q-2 -87 -10 -173 l-4 -28 q-3 -38 -10 -74 q-5 -22 -13 -43 q-15 -37 -45 -61 q-26 -21 -57 -27 q-26 -5 -51 3 q-34 11 -60 36 q-32 27 -52 63 q-9 8 -20 7 q-13 -4 -12 -16 Z" /><glyph glyph-name="" unicode="k" d="M403 685 q-123 -175 -284 -314 l-21 305 q-4 9 -14 11 q-13 0 -17 -11 q-11 -180 -16 -359 q-4 -158 4 -314 q0 -13 13 -19 q12 -4 26 -6 q13 2 24 9 q6 7 8 16 q1 143 -3 287 l6 4 q38 34 75 71 q34 -94 84 -179 l26 -54 q19 -42 42 -81 q19 -35 47 -62 q22 -17 49 -10 q20 10 20 32 q-8 28 -21 54 q-23 40 -48 80 q-22 31 -41 64 l-8 12 q-32 51 -64 103 q-26 37 -55 73 q117 124 206 271 q3 16 -12 24 q-16 4 -26 -7 Z" /><glyph glyph-name="" unicode="l" d="M66 687 q-20 -342 -14 -684 q0 -12 11 -19 q12 -5 25 -7 l379 -3 q15 1 28 11 q7 10 8 21 q-3 10 -11 17 q-12 7 -25 8 l-344 -2 q-3 104 -1 209 q1 140 -2 280 q-5 84 -11 168 q-8 13 -22 15 q-9 0 -15 -4 q-7 -4 -6 -10 Z" /><glyph glyph-name="" unicode="m" d="M480 686 l0 -1 q-3 -2 -4 -5 q-35 -71 -75 -138 q-47 -78 -84 -159 q-41 80 -84 159 q-40 67 -74 138 l-3 5 l0 1 q-3 12 -15 13 q-17 1 -23 -13 q-29 -176 -51 -351 q-19 -159 -26 -317 q-2 -12 9 -17 q10 -4 22 -6 q11 -1 23 4 q7 4 9 12 q13 76 22 153 q9 121 14 243 q3 97 9 195 q57 -153 133 -297 q13 -20 37 -17 q22 -2 34 17 q73 145 133 297 q3 -59 5 -117 q1 -142 13 -282 q7 -97 27 -192 q1 -8 8 -12 q10 -5 23 -4 q11 2 22 6 q8 6 10 17 q-8 136 -21 273 q-25 197 -56 395 q-5 11 -18 13 q-8 0 -14 -3 q-6 -4 -5 -10 Z" /><glyph glyph-name="" unicode="n" d="M445 692 q-8 -58 -10 -115 q-2 -69 -1 -138 q1 -46 1 -91 l-6 -239 l-135 241 q-27 40 -49 84 q-66 119 -139 233 l0 9 q-6 16 -22 20 q-4 1 -8 1 q-11 -2 -19 -7 q-8 -6 -6 -14 l0 -137 q-2 -162 4 -322 q3 -115 23 -228 q2 -9 13 -10 q10 2 18 10 q10 119 12 240 q-2 141 -9 283 l-3 81 q64 -132 135 -259 q83 -167 172 -330 q5 -9 17 -12 q14 -9 31 -6 q14 5 19 19 l3 90 q9 184 8 369 q-2 115 -18 230 q-6 10 -17 9 q-12 -1 -14 -11 Z" /><glyph glyph-name="" unicode="o" d="M495 550 q-15 33 -36 64 q-22 26 -47 49 q-22 14 -44 27 q-21 9 -43 15 q-38 4 -76 0 q-47 -8 -85 -33 q-36 -25 -62 -59 q-25 -32 -38 -69 q-30 -91 -33 -185 q-3 -103 30 -199 q9 -37 29 -70 q17 -32 45 -55 q32 -32 76 -46 q40 -13 83 -11 q24 4 49 11 q29 11 55 30 q46 38 76 91 q55 104 59 222 q2 112 -38 218 ZM400 114 q-17 -29 -42 -50 q-25 -21 -55 -28 q-28 -5 -55 1 q-31 6 -55 24 q-42 28 -60 76 q-26 50 -35 106 q-11 72 -7 145 q4 43 14 86 q8 39 28 75 q23 40 58 72 q18 19 44 27 q29 9 61 8 q26 -5 49 -17 q31 -23 59 -50 q18 -23 32 -49 q13 -30 21 -60 q20 -105 3 -209 q-17 -84 -60 -157 Z" /><glyph glyph-name="" unicode="p" d="M61 354 q-2 -47 -5 -93 q-4 -72 -5 -143 q-2 -58 8 -115 q1 -8 8 -14 q9 -7 21 -9 q11 -1 22 5 q9 7 13 18 q6 44 8 90 q0 65 -4 131 l-3 56 q76 -5 152 7 q68 10 130 43 q54 30 88 83 q22 41 28 89 q2 59 -29 109 q-35 46 -89 67 q-74 23 -151 27 q-89 2 -175 -18 q-11 -2 -14 -12 q1 -11 12 -12 q-11 -51 -12 -102 q-3 -63 -3 -125 l0 -82 ZM121 354 q-3 30 -1 61 q0 73 -4 146 q-5 51 -12 102 q78 1 156 -9 q29 -5 58 -12 q26 -10 51 -21 q31 -19 53 -48 q17 -34 16 -72 q-6 -41 -27 -75 q-23 -32 -55 -52 q-42 -26 -89 -34 q-57 -9 -114 -7 l-32 0 l0 21 Z" /><glyph glyph-name="" unicode="q" d="M500 529 q-16 33 -35 64 q-20 26 -45 49 q-21 14 -43 26 q-21 10 -43 15 q-37 4 -73 1 q-45 -9 -82 -33 q-35 -26 -61 -60 q-24 -32 -36 -69 q-29 -83 -31 -169 q-2 -100 28 -194 q8 -38 27 -71 q16 -32 43 -55 q32 -31 74 -45 q38 -13 80 -12 q40 5 75 25 q37 22 66 57 q12 -31 22 -62 q4 -13 19 -17 q14 -4 29 0 q13 4 22 14 q4 8 2 17 q-23 55 -57 105 q52 103 56 220 q0 100 -37 194 ZM310 242 q58 -55 102 -121 l-4 -7 q-17 -28 -41 -50 q-24 -21 -54 -28 q-27 -5 -53 1 q-29 6 -53 23 q-20 13 -34 33 q-16 20 -24 44 q-24 50 -31 106 q-8 62 -5 125 q0 43 9 86 q7 39 27 75 q23 39 56 72 q19 20 47 28 q26 7 55 7 q25 -5 47 -18 q31 -21 57 -49 q37 -50 52 -110 q29 -149 -27 -289 q-48 48 -104 88 q-11 4 -21 0 q-5 -3 -6 -8 q0 -5 5 -8 Z" /><glyph glyph-name="" unicode="r" d="M53 340 q-2 -61 -1 -121 q-4 -110 1 -219 q1 -10 10 -17 q9 -5 21 -7 q13 -1 25 5 q8 8 12 19 q1 149 -3 299 q3 -2 7 -2 q78 -9 158 0 l39 -106 q37 -97 82 -191 q6 -13 21 -17 q14 -4 30 -1 q12 5 20 15 q4 8 3 19 q-25 68 -58 133 l-6 10 q-39 75 -87 146 q68 13 121 58 q43 41 56 100 q9 61 -13 119 q-16 28 -38 51 q-22 16 -44 30 q-74 29 -153 34 q-93 5 -183 -11 q-7 -2 -10 -7 q-4 -6 1 -11 q-10 -55 -11 -110 q-3 -66 -1 -132 q-2 -44 1 -86 ZM116 353 q-3 19 -1 40 q1 83 -2 166 q-5 52 -12 104 q67 1 135 -3 q57 -5 112 -24 q24 -13 47 -29 q23 -23 36 -52 q17 -62 -10 -120 q-16 -28 -39 -48 q-23 -18 -50 -27 q-31 -9 -61 -13 q-46 -5 -91 -5 l-47 0 q-10 -2 -17 -6 l0 17 Z" /><glyph glyph-name="" unicode="s" d="M533 505 q-5 48 -23 93 q-22 41 -61 68 q-49 27 -104 38 q-51 6 -100 -1 q-40 -9 -74 -28 q-43 -25 -72 -64 q-27 -38 -35 -82 q-7 -43 13 -80 q15 -33 46 -51 q18 -11 38 -20 q28 -14 59 -21 l47 -15 q75 -25 137 -74 q27 -24 46 -54 q10 -23 16 -46 q0 -37 -21 -67 q-27 -31 -63 -47 q-42 -18 -87 -19 q-35 0 -67 11 q-64 23 -104 79 q-40 56 -32 126 q-1 7 -5 12 q-8 6 -17 8 q-12 1 -22 -2 q-10 -4 -12 -12 q-11 -45 0 -90 q10 -47 40 -84 q31 -43 78 -68 q38 -21 82 -31 q46 -7 93 -4 q59 8 112 35 q47 26 78 71 q25 41 23 90 q-9 42 -34 77 q-32 43 -74 75 q-47 31 -98 53 q-28 8 -55 17 q-34 7 -65 21 q-21 7 -38 21 q-22 14 -31 39 q-11 30 -2 62 q10 33 34 60 q26 27 61 43 q35 13 74 11 q44 -2 85 -17 q34 -17 60 -45 q11 -19 21 -39 q10 -26 17 -53 q-1 -8 7 -9 q7 -2 14 0 q11 1 15 13 Z" /><glyph glyph-name="" unicode="t" d="M28 654 q116 -8 234 -12 q-8 -61 -12 -121 q-5 -100 -5 -200 l-2 -87 q-5 -120 4 -238 q1 -8 7 -14 q9 -6 22 -8 q13 0 25 7 q7 6 10 15 q10 107 6 216 q-3 54 -1 109 q1 159 -14 319 q104 -3 209 0 q13 -1 24 7 q8 6 10 17 q-1 11 -8 19 q-12 8 -26 11 q-114 1 -226 -2 q-129 -5 -257 -13 q-13 -1 -18 -12 q3 -14 18 -13 Z" /><glyph glyph-name="" unicode="u" d="M79 692 q-26 -96 -28 -195 q-2 -123 9 -245 q4 -62 28 -119 q19 -49 57 -85 q30 -29 68 -45 q45 -17 95 -22 q44 0 87 10 q35 12 65 36 q35 31 59 72 q25 50 38 105 q22 106 19 215 q-3 134 -34 266 q-5 8 -14 13 q-11 3 -22 2 q-19 -3 -23 -21 q1 -59 9 -116 q6 -80 11 -159 q0 -48 -4 -94 q-8 -56 -21 -109 q-14 -51 -41 -94 q-22 -31 -54 -49 q-39 -18 -81 -13 q-32 3 -60 17 q-36 18 -60 50 q-23 32 -33 71 q-18 62 -19 127 l-2 44 q-5 82 -3 165 q1 83 -2 167 q-5 16 -22 18 q-16 1 -22 -12 Z" /><glyph glyph-name="" unicode="v" d="M525 700 q-35 -69 -63 -140 q-43 -107 -83 -214 q-16 -39 -32 -77 q-34 -76 -62 -153 l-93 231 l-18 46 q-59 156 -127 309 q-9 6 -19 5 q-10 -4 -7 -12 l6 -24 q44 -171 102 -338 l30 -91 q19 -70 45 -137 q21 -57 47 -111 q5 -11 17 -16 q15 -4 31 -1 q13 5 22 16 q48 109 83 225 l39 114 q43 131 80 266 l28 96 q-3 7 -10 12 q-11 3 -16 -6 Z" /><glyph glyph-name="" unicode="w" d="M508 688 q-14 -86 -30 -171 q-32 -181 -52 -362 q-21 66 -43 132 q-47 131 -84 266 q-3 6 -8 10 l-5 0 q-5 1 -9 1 q-8 -2 -13 -7 q-2 -2 -1 -3 q-35 -121 -75 -240 q-27 -80 -52 -159 q-23 172 -53 343 q-17 94 -29 190 q-7 11 -20 12 q-12 -1 -14 -12 l4 -89 q9 -190 26 -378 q10 -112 33 -222 q6 -14 22 -16 q19 0 36 10 l6 8 q84 219 134 450 q48 -231 135 -450 q1 -6 7 -10 q15 -10 34 -8 q14 3 22 16 q19 110 32 222 q12 143 20 288 q4 89 12 179 q-4 10 -14 12 q-15 0 -21 -12 Z" /><glyph glyph-name="" unicode="x" d="M57 683 q85 -182 195 -350 q-110 -157 -226 -307 q-9 -11 -3 -24 q6 -12 20 -17 q27 -7 48 11 q106 133 202 276 q94 -144 203 -277 q10 -11 26 -13 q14 -1 28 6 q9 5 14 14 q2 11 -3 22 q-119 151 -228 309 q109 169 197 352 q1 3 0 7 l-9 8 q-8 1 -15 1 q-7 -1 -10 -6 q-100 -154 -203 -304 q-105 148 -202 303 q-11 9 -25 5 q-7 -2 -10 -7 q-2 -5 1 -9 Z" /><glyph glyph-name="" unicode="y" d="M528 702 q-62 -56 -120 -114 l-36 -35 q-53 -47 -98 -99 q-108 124 -218 246 q-13 9 -28 5 q-12 -8 -4 -19 q103 -147 214 -289 q1 -3 4 -4 q-3 -30 0 -59 l3 -36 q0 -147 3 -292 q0 -9 7 -16 q10 -7 24 -9 q13 -1 25 5 q10 8 13 20 l0 270 q-1 54 1 108 q-2 7 -1 15 l5 3 l40 38 l54 64 l43 54 q52 61 101 126 q3 13 -9 20 q-13 4 -23 -2 Z" /><glyph glyph-name="" unicode="z" d="M53 668 q155 -8 312 -12 q-118 -208 -224 -420 l-108 -210 q-7 -13 4 -21 q12 -11 30 -13 q183 2 368 1 q12 1 23 8 q7 6 10 16 q0 11 -7 20 q-12 8 -26 9 q-159 -1 -316 1 q32 62 67 124 q80 144 157 292 q54 104 104 211 q2 11 -5 21 q-12 9 -27 11 q-183 -6 -364 -13 q-7 -1 -12 -4 q-5 -5 -3 -10 q3 -13 17 -11 Z" /><glyph glyph-name="" unicode="a" d="M101 368 q7 26 26 46 q27 25 63 35 q37 9 75 5 q35 -6 68 -22 q31 -23 47 -58 q12 -41 11 -83 q-44 36 -99 50 q-71 15 -135 -16 q-73 -38 -109 -111 q-17 -36 -18 -75 q-1 -36 15 -67 q16 -32 46 -52 q24 -17 53 -24 q59 -15 120 -2 q69 15 120 66 q22 -58 83 -71 q13 -3 25 4 q10 7 15 19 q2 10 0 20 q-5 11 -15 18 q-35 13 -45 48 q-8 25 -6 53 q1 29 7 59 q9 45 12 92 q0 52 -19 101 q-19 41 -53 72 q-45 31 -99 39 q-56 7 -110 -8 q-26 -10 -49 -23 q-21 -16 -37 -35 q-25 -35 -26 -76 q-2 -8 4 -13 q4 -6 12 -4 q13 0 18 13 ZM384 226 q-8 -43 -10 -85 q-2 -1 -2 -2 q-31 -40 -73 -67 q-38 -23 -81 -24 q-33 -2 -63 10 q-27 10 -45 33 q-17 23 -17 52 q1 26 14 49 q22 46 67 73 q39 22 85 24 q37 -2 73 -14 q30 -13 53 -38 q-2 -6 -1 -11 Z" /><glyph glyph-name="" unicode="b" d="M72 746 l-3 -48 q-14 -195 -18 -389 q-2 -146 11 -290 q0 -10 6 -18 q8 -7 19 -10 q11 -1 22 5 q9 6 12 17 q57 -25 120 -15 q36 9 69 29 q31 23 56 54 q49 67 64 150 q3 41 2 83 q-6 40 -21 78 q-33 67 -97 105 q-59 30 -122 14 q-41 -13 -70 -44 l-16 279 q-3 13 -16 16 q-16 -1 -18 -16 ZM125 403 q22 35 62 50 q37 12 75 -1 q50 -22 79 -68 q28 -56 27 -117 q-3 -52 -24 -98 q-20 -44 -57 -73 q-38 -28 -84 -32 q-40 -2 -76 15 l-1 0 q6 162 -1 324 Z" /><glyph glyph-name="" unicode="c" d="M444 396 q-21 59 -73 96 q-62 39 -134 34 q-34 -8 -65 -22 q-40 -23 -70 -57 q-58 -73 -69 -164 q-11 -89 29 -169 q35 -70 106 -104 q75 -34 155 -13 q68 20 111 78 q4 11 3 23 q-6 11 -16 19 q-11 7 -23 6 q-10 -1 -16 -8 q-32 -38 -77 -53 q-27 -8 -53 -3 q-27 4 -49 17 q-50 29 -76 81 q-27 54 -22 115 q6 62 40 116 q29 46 80 70 q59 22 119 0 q50 -22 76 -71 q5 -8 14 -5 q10 3 10 14 Z" /><glyph glyph-name="" unicode="d" d="M414 747 q-20 -68 -28 -137 q-9 -81 -10 -162 q-34 37 -80 58 q-44 16 -88 6 q-31 -9 -57 -25 q-34 -26 -58 -60 q-47 -72 -58 -155 q-14 -79 11 -154 q22 -67 82 -103 q62 -31 131 -19 q76 16 126 78 q7 -29 22 -54 q6 -12 18 -16 q13 -4 27 1 q13 7 20 21 q4 15 0 32 q-25 54 -29 115 q-8 75 -3 151 l3 96 q0 53 3 107 q4 64 4 129 q-2 43 -5 86 q-5 12 -17 16 q-11 -2 -14 -11 ZM366 156 q-17 -37 -47 -62 q-32 -24 -69 -34 q-38 -8 -73 5 q-29 10 -46 36 q-27 34 -31 78 q-5 48 5 97 q8 44 28 85 q16 37 46 66 q42 38 99 24 q28 -12 53 -31 q23 -23 43 -48 l-3 -41 q-8 -85 -1 -169 q-3 -3 -4 -6 Z" /><glyph glyph-name="" unicode="e" d="M431 224 q28 36 37 83 q1 28 -3 56 q-8 26 -21 51 q-33 49 -85 76 q-56 25 -117 21 q-49 -9 -91 -33 q-53 -35 -84 -89 q-32 -55 -36 -118 q-5 -64 18 -124 q25 -65 80 -106 q53 -38 118 -46 q64 -7 125 15 q46 22 83 58 q5 6 7 15 q1 10 -6 19 q-8 7 -18 9 q-12 1 -21 -5 q-36 -27 -78 -40 q-41 -12 -83 -6 q-80 13 -123 80 q-40 59 -35 131 q22 -47 68 -72 q47 -26 101 -32 q53 -5 103 14 q35 14 61 43 ZM153 396 q33 31 77 43 q44 10 88 0 q19 -8 38 -17 q15 -13 28 -29 q16 -33 16 -68 q-3 -39 -30 -66 q-18 -16 -40 -23 q-25 -8 -50 -8 q-55 -2 -102 25 q-23 11 -39 30 q-15 18 -22 41 l-6 8 q14 36 42 64 Z" /><glyph glyph-name="" unicode="f" d="M417 531 q15 71 -1 142 q-11 34 -32 63 q-18 19 -40 34 q-52 24 -99 -5 q-24 -18 -41 -42 q-17 -27 -27 -55 q-18 -47 -22 -96 q-6 -57 -3 -114 q-69 -1 -137 -11 q-13 -3 -14 -15 q-1 -15 14 -19 q68 -14 139 -14 q-2 -29 1 -56 l0 -338 q1 -24 26 -27 q11 -1 21 6 q10 8 11 21 q4 185 5 372 l0 18 q4 -3 10 -1 q70 -8 141 0 q27 3 32 30 q0 12 -7 23 q-11 10 -25 14 q-62 4 -123 0 q-15 -2 -30 -1 q-3 70 8 140 q5 28 16 56 q9 24 29 43 q14 10 32 12 q23 -2 43 -15 q26 -25 37 -58 q13 -52 9 -105 q-1 -11 10 -12 q11 -1 17 10 Z" /><glyph glyph-name="" unicode="g" d="M57 -55 q3 -55 38 -99 q34 -40 85 -60 q50 -16 102 -1 q40 17 70 48 q28 39 41 84 q15 72 20 144 q1 28 4 57 q1 21 4 43 q7 55 9 112 q0 33 -4 67 q-8 55 -39 102 q-46 58 -117 78 q-65 13 -120 -21 q-29 -21 -51 -48 q-29 -39 -45 -83 q-32 -91 -21 -185 q4 -49 30 -91 q30 -51 83 -76 q50 -22 105 -18 q55 7 98 45 q-5 -71 -26 -139 q-14 -30 -39 -53 q-18 -10 -37 -16 q-20 -1 -39 0 q-42 8 -73 36 q-32 33 -38 77 q-7 17 -24 17 q-17 -3 -16 -20 ZM345 154 q-12 -30 -31 -55 q-19 -23 -46 -33 q-28 -11 -57 -6 q-26 4 -46 19 q-24 14 -40 37 q-21 30 -25 66 q-11 74 14 145 q10 35 31 67 q19 29 50 49 q29 16 63 12 q28 -11 53 -28 q31 -32 42 -75 q7 -50 4 -100 q-2 -15 -1 -29 q-2 -28 -2 -55 q-7 -6 -9 -14 Z" /><glyph glyph-name="" unicode="h" d="M71 721 q-11 -178 -12 -356 l-4 -95 q-4 -73 -5 -145 q-2 -60 7 -118 q1 -10 7 -19 q8 -9 21 -11 q12 -1 22 6 q9 11 13 24 q6 53 6 107 q0 77 -4 155 l-2 66 q6 20 18 39 q13 25 34 45 q19 19 45 28 q23 6 46 -4 q17 -14 30 -32 q13 -26 16 -54 q3 -35 -1 -68 q-3 -22 -4 -44 q-5 -50 -3 -99 q1 -42 13 -81 q7 -29 25 -52 q17 -23 42 -40 q16 -8 31 4 q15 15 8 35 q-35 56 -41 122 q-8 74 5 149 q7 56 0 112 q-8 50 -39 90 q-40 43 -98 49 q-51 1 -91 -30 q-25 -21 -40 -49 q-6 133 -13 266 q-4 11 -16 14 q-14 -1 -16 -14 Z" /><glyph glyph-name="" unicode="i" d="M121 4 q24 246 17 494 q-5 25 -30 30 q-13 1 -23 -6 q-10 -10 -10 -24 q-11 -248 17 -494 q1 -12 15 -14 q12 2 14 14 ZM153 649 q6 18 -1 37 q-9 24 -33 31 q-21 4 -39 -5 q-17 -9 -24 -25 q-8 -19 -4 -38 q5 -23 26 -33 q23 -12 48 0 q4 1 8 5 q13 11 19 28 Z" /><glyph glyph-name="" unicode="j" d="M-76 -185 q24 -28 59 -41 q42 -12 85 1 q40 19 62 57 q13 26 22 52 q8 35 15 70 q7 56 11 113 q5 90 10 182 q1 125 -6 250 q-8 25 -33 32 q-13 1 -22 -6 q-7 -8 -8 -17 q-6 -35 -7 -70 q-2 -53 2 -105 q3 -44 5 -88 q1 -137 -9 -272 q-8 -51 -26 -100 q-17 -37 -52 -56 q-47 -6 -86 22 q-11 8 -22 -1 q-7 -11 0 -23 ZM205 650 q4 19 -2 38 q-9 23 -33 31 q-21 4 -39 -6 q-35 -23 -28 -63 q5 -23 26 -33 q23 -11 48 0 l7 5 q15 10 21 28 Z" /><glyph glyph-name="" unicode="k" d="M398 532 q-33 -11 -63 -27 q-35 -20 -68 -42 l-18 -12 q-70 -43 -136 -90 q-9 177 -10 356 q-2 18 -20 20 q-9 0 -16 -4 q-7 -7 -7 -16 q-14 -353 -8 -705 q-1 -12 7 -21 q9 -10 24 -12 q13 0 25 7 q10 11 12 26 q-2 134 -5 268 q6 1 11 5 q43 30 87 62 q20 -86 52 -168 q33 -95 77 -185 q5 -13 19 -16 q13 0 27 4 q10 8 18 19 q4 9 1 20 q-41 109 -87 216 q-33 70 -70 138 l38 28 q40 28 78 61 q25 22 44 50 q4 5 0 12 q-6 4 -12 6 Z" /><glyph glyph-name="" unicode="l" d="M72 708 q-26 -258 -20 -517 q0 -38 3 -75 q2 -31 12 -60 q14 -45 55 -68 q37 -19 78 -7 q45 17 59 63 q0 11 -1 22 q-7 10 -18 16 q-14 3 -26 -1 q-13 -7 -18 -20 q-15 -5 -29 -5 q-11 0 -20 6 q-18 14 -16 37 q-9 30 -7 61 q-6 53 -7 107 q-5 64 -5 130 q-2 58 0 117 q0 97 -1 194 q-5 13 -18 17 q-18 -1 -21 -17 Z" /><glyph glyph-name="" unicode="m" d="M93 7 q4 128 21 256 q-1 4 1 9 q4 54 17 108 q7 26 19 51 q10 17 29 24 q13 -2 25 -8 q8 -10 16 -19 q10 -19 16 -39 q10 -60 10 -120 l0 -23 q1 -54 1 -108 q-8 -67 -1 -134 q1 -14 14 -24 q11 -7 25 -8 q12 2 22 11 q4 11 6 21 q-2 47 0 95 q3 63 12 127 l2 24 q4 45 12 91 q4 29 13 58 q8 23 21 45 q7 10 19 16 q14 1 24 -11 q18 -40 23 -83 q6 -64 11 -127 q4 -83 4 -166 q0 -35 2 -69 q-1 -11 7 -20 q9 -10 23 -12 q13 0 25 7 q9 11 11 25 q-2 26 0 53 q3 112 -1 224 q-6 69 -19 137 q-14 52 -51 91 q-27 16 -57 15 q-41 -8 -63 -42 q-27 -41 -39 -88 q-12 45 -37 84 q-24 32 -63 42 q-34 3 -64 -13 q-43 -36 -56 -89 q-17 -68 -21 -137 q-4 -113 4 -225 l3 -52 q2 -14 18 -13 q13 3 16 16 Z" /><glyph glyph-name="" unicode="n" d="M58 477 q-11 -159 -6 -318 q-2 -62 3 -122 l0 -25 l1 0 q0 -10 7 -16 q8 -7 19 -9 q11 -1 21 6 q8 8 10 20 q-3 109 -4 219 q4 49 20 97 q13 40 37 76 q22 34 58 56 q23 10 49 3 q16 -7 28 -20 q12 -15 23 -31 q22 -49 31 -101 q0 -33 -1 -64 q-5 -56 -6 -111 q-1 -41 7 -81 q4 -34 28 -59 q16 -13 37 -20 q11 -1 22 5 q11 8 16 21 q0 10 -4 20 q-7 10 -17 15 q-11 4 -13 15 q-5 16 -7 33 q-6 71 -1 143 l2 85 q-6 36 -13 72 q-8 29 -20 57 q-21 40 -58 65 q-55 31 -113 9 q-31 -15 -56 -37 q-25 -24 -43 -53 l-14 -25 q-3 38 -7 77 q-7 13 -21 14 q-14 -3 -15 -16 Z" /><glyph glyph-name="" unicode="o" d="M221 -19 q53 5 99 32 q41 32 68 78 q24 50 35 106 q7 58 3 117 q-8 55 -30 106 q-23 46 -62 79 q-74 44 -157 25 l-12 -6 q-39 -19 -67 -50 q-29 -37 -44 -79 q-17 -47 -22 -95 q-5 -51 2 -101 q7 -48 24 -92 q16 -41 47 -73 q49 -45 116 -47 ZM192 470 q68 15 125 -25 q27 -31 41 -70 q10 -45 12 -91 q-2 -49 -15 -96 q-14 -44 -37 -82 q-22 -32 -55 -50 q-36 -14 -71 -1 q-24 10 -42 28 q-17 19 -27 43 q-14 33 -18 70 q-6 42 -4 86 q0 57 20 111 q17 45 55 77 q8 -3 16 0 Z" /><glyph glyph-name="" unicode="p" d="M440 286 q0 55 -22 106 q-23 44 -62 74 q-49 30 -105 44 q-64 10 -128 7 l-38 0 q-14 -2 -24 -11 q-8 -9 -7 -20 l-2 -234 q-2 -141 -1 -282 q1 -93 6 -187 q0 -9 6 -16 q8 -8 19 -10 q10 0 19 6 q10 8 13 20 l4 235 q63 -5 125 15 q59 17 106 58 q46 41 71 98 q16 47 20 97 ZM117 456 q61 1 122 -9 q45 -9 84 -34 q25 -21 42 -49 q16 -38 16 -78 q-3 -96 -73 -161 q-40 -32 -87 -49 q-50 -17 -102 -17 l-2 397 Z" /><glyph glyph-name="" unicode="q" d="M343 -182 q1 -31 19 -58 q21 -24 54 -26 q33 3 58 26 q25 31 28 71 q-2 10 -6 18 q-9 8 -19 9 q-12 2 -21 -5 q-9 -9 -10 -22 q-3 -18 -8 -37 q-4 -6 -11 -10 q-10 4 -14 12 q-9 13 -10 27 q-5 20 -1 40 q-2 11 1 20 l0 154 q0 222 3 444 q0 12 -9 20 q-10 8 -22 11 q-67 7 -132 -3 q-63 -11 -116 -45 q-52 -35 -78 -91 q-20 -49 -18 -101 q0 -49 17 -94 q22 -56 67 -94 q45 -38 101 -56 q59 -18 121 -16 q1 -97 6 -194 ZM87 258 q-2 41 11 80 q18 43 56 73 q40 25 87 36 q51 10 103 7 q-5 -200 -7 -400 q-50 1 -96 16 q-45 14 -82 43 q-68 56 -72 145 Z" /><glyph glyph-name="" unicode="r" d="M33 506 q39 -75 55 -157 q16 -94 16 -188 q-8 -70 -2 -140 q-1 -17 13 -25 q11 -7 25 -7 q11 2 20 9 q8 9 10 23 q0 53 -1 106 q3 60 18 120 q15 58 44 111 q29 50 75 86 q37 24 80 38 q11 3 17 13 q5 9 4 20 q-2 12 -12 20 q-11 7 -24 5 q-75 -18 -131 -70 q-62 -60 -93 -139 q-23 104 -81 194 q-13 12 -28 5 q-13 -10 -5 -24 Z" /><glyph glyph-name="" unicode="s" d="M435 447 q-22 22 -46 41 q-29 16 -58 30 q-65 22 -132 19 q-31 -5 -60 -16 q-28 -13 -48 -35 q-32 -41 -36 -92 q-4 -50 28 -87 q37 -39 90 -52 q23 -8 49 -8 q38 -5 76 -11 q25 -7 48 -20 q17 -17 25 -40 q3 -22 -1 -43 q-8 -39 -36 -67 q-28 -20 -61 -21 q-50 -2 -94 21 q-33 16 -61 40 q-18 13 -29 32 q-9 9 -20 12 q-11 2 -20 -2 q-12 -5 -17 -16 q-5 -14 4 -24 q46 -72 124 -106 q70 -27 143 -8 q37 11 67 37 q28 25 46 60 q29 64 4 130 q-16 28 -40 49 q-31 19 -65 31 q-31 7 -61 9 q-38 1 -73 12 q-24 7 -39 26 q-26 26 -14 61 q16 37 52 59 q53 28 113 19 q68 -14 120 -62 q8 -10 19 -2 q10 10 3 24 Z" /><glyph glyph-name="" unicode="t" d="M365 89 q-22 -20 -46 -35 q-20 -12 -41 -16 q-16 -4 -29 4 q-16 8 -21 25 q-11 22 -14 47 q-5 35 -5 71 l0 29 q-2 123 5 247 l137 -5 q13 0 23 9 q8 9 10 21 q0 14 -7 26 q-11 10 -26 13 q-68 -3 -135 -4 q4 93 3 187 q-2 9 -8 17 q-8 8 -19 11 q-14 -1 -24 -8 q-8 -9 -9 -20 q-8 -95 -11 -190 q-66 -3 -130 -9 q-16 -2 -18 -17 q0 -18 18 -19 q63 -8 128 -9 q-2 -79 -2 -157 q-5 -72 0 -143 q3 -47 15 -92 q9 -35 32 -62 q26 -25 63 -25 q38 4 71 24 q36 25 62 61 q4 10 -2 19 q-10 7 -20 0 Z" /><glyph glyph-name="" unicode="u" d="M65 516 q-15 -119 -15 -238 q1 -70 15 -137 q12 -60 50 -107 q41 -40 100 -42 q58 3 102 43 q23 25 40 56 q16 35 29 72 q10 -89 60 -163 q7 -10 21 -12 q11 -1 22 5 q18 14 8 36 q-45 67 -57 147 q-8 47 -8 96 q-1 54 1 109 l3 129 q-6 21 -27 25 q-18 -2 -23 -18 q-2 -4 -1 -7 l-2 0 l0 -9 q-5 -35 -8 -69 q-5 -69 -18 -136 l-3 -14 q-11 -43 -23 -85 q-13 -37 -32 -71 q-11 -23 -28 -40 q-11 -11 -24 -16 q-28 -11 -55 -2 q-40 25 -53 71 q-14 38 -20 78 q-8 44 -11 89 q-8 103 -5 208 q-3 14 -17 18 q-18 1 -21 -16 Z" /><glyph glyph-name="" unicode="v" d="M21 516 q7 -108 39 -211 q20 -71 49 -137 q33 -83 71 -163 q9 -13 27 -15 q20 -1 32 15 q37 80 72 162 q28 67 51 138 q34 101 43 209 q-2 21 -22 28 q-13 1 -23 -4 q-9 -6 -13 -15 q-35 -98 -66 -196 q-35 -112 -74 -221 q-53 106 -92 218 q-35 96 -56 197 q-7 12 -21 12 q-8 -1 -13 -5 q-6 -5 -4 -12 Z" /><glyph glyph-name="" unicode="w" d="M58 505 q-8 -91 -7 -182 q0 -80 12 -159 q6 -60 35 -113 q17 -37 54 -52 q21 -7 44 -6 q27 5 48 24 q21 24 34 55 q13 37 24 76 q6 -26 20 -49 q13 -34 38 -60 q18 -23 44 -35 q42 -14 79 11 q34 29 47 74 q18 66 20 135 q7 140 -9 281 q-5 13 -14 23 q-12 7 -25 7 q-11 -2 -18 -9 q-8 -10 -6 -21 q12 -114 14 -227 q-2 -75 -19 -147 l-2 -6 q-5 -23 -15 -43 q-11 -14 -28 -14 q-12 0 -21 8 q-11 8 -16 20 q-20 34 -30 73 q-30 97 -34 199 l2 137 q-4 25 -29 30 q-13 1 -23 -6 q-12 -10 -12 -24 q-5 -69 -1 -137 q-2 -56 -7 -110 q-5 -43 -14 -85 q-7 -28 -17 -54 q-8 -18 -18 -33 q-10 -15 -25 -20 q-16 -3 -26 8 q-15 15 -22 35 q-30 73 -37 153 q-5 54 -5 110 q0 66 3 133 q-2 15 -17 17 q-8 0 -14 -4 q-6 -6 -7 -13 Z" /><glyph glyph-name="" unicode="x" d="M375 525 q-71 -103 -144 -203 q-69 106 -149 204 q-12 9 -24 2 q-14 -11 -7 -26 q67 -119 140 -234 q-84 -115 -164 -232 q-16 -25 7 -42 q11 -7 26 -6 q14 4 25 14 q74 100 142 206 q60 -103 122 -203 q8 -13 25 -15 q14 -1 27 6 q12 8 15 23 q1 11 -5 22 q-75 112 -145 228 q73 115 141 235 q6 13 -4 25 q-16 8 -28 -4 Z" /><glyph glyph-name="" unicode="y" d="M66 512 q-17 -118 -16 -236 q0 -70 14 -138 q10 -59 47 -105 q39 -40 95 -36 q42 3 76 28 q37 30 60 74 l-4 -72 q-4 -40 -8 -80 q-6 -38 -19 -76 q-18 -42 -58 -65 q-39 -15 -76 1 q-27 12 -41 36 q-15 29 -19 60 l-3 20 q-8 20 -29 20 q-12 0 -20 -8 q-8 -7 -8 -19 q-2 -33 7 -65 q7 -29 24 -56 q33 -47 91 -58 q62 -10 118 20 q26 20 47 45 q19 29 30 62 q22 81 27 164 q7 126 3 253 q-3 83 -1 167 q1 23 1 47 q-2 13 -12 23 q-11 7 -23 7 q-27 -3 -29 -29 l0 -1 q-2 -27 -1 -53 q-2 -11 -1 -22 q0 -69 -7 -136 q-8 -41 -16 -81 q-17 -66 -62 -115 q-18 -17 -41 -22 q-25 -3 -45 11 q-32 33 -44 77 q-17 58 -20 119 q-9 96 -7 193 q-1 23 1 47 q-3 10 -13 13 q-15 -1 -18 -14 Z" /><glyph glyph-name="" unicode="z" d="M32 485 q54 -11 109 -14 q64 -6 130 -7 q18 -3 38 -1 q-40 -58 -77 -117 q-35 -53 -71 -104 q-73 -101 -137 -206 q-8 -16 1 -31 q8 -13 25 -12 q65 4 131 -1 q54 -3 110 -5 q44 2 88 8 q21 5 20 27 q-2 10 -8 19 q-8 7 -19 10 q-54 0 -106 2 q-77 3 -154 2 q48 72 98 144 q98 136 189 279 q7 15 1 31 q-11 16 -30 19 q-103 1 -204 -5 q-67 -5 -132 -19 q-7 -3 -8 -9 q-2 -8 6 -10 Z" /><glyph glyph-name="" unicode="&#x4fee;" d="M266 471 q-11 -91 -12 -182 q-1 -104 5 -208 q2 -21 22 -24 q23 0 27 24 q3 133 -3 267 q10 -19 32 -13 q103 26 183 97 q42 -41 92 -69 q46 -25 97 -34 q24 -4 32 19 q4 12 0 24 q-5 12 -17 18 q-87 32 -165 82 q34 39 62 84 q32 53 59 110 q6 11 -1 23 q-7 9 -18 10 q-102 1 -202 -1 q6 33 8 67 q-2 9 -11 10 q-9 0 -11 -8 q-15 -60 -47 -112 q-38 -58 -88 -104 q-11 -11 -10 -26 q2 -13 12 -21 q22 -17 44 2 q30 29 53 65 q30 -50 68 -94 q-72 -57 -157 -88 q-13 -5 -17 -16 q-4 50 -11 101 q-3 10 -13 9 q-10 -2 -13 -12 ZM253 732 q-36 -49 -81 -90 q-52 -45 -110 -82 q-9 -7 -11 -17 q-2 -10 2 -20 q9 -17 29 -11 q45 18 84 50 q-15 -152 -15 -304 q-1 -36 -3 -72 q-6 -86 -5 -172 q2 -59 15 -118 q5 -14 21 -16 q19 -1 26 16 q9 45 11 91 q2 70 -2 140 q-4 58 -5 116 q0 173 -14 346 q54 57 82 131 q4 10 -5 16 q-12 4 -19 -4 ZM656 182 q-41 -80 -109 -137 q-79 -64 -176 -98 q-14 -4 -20 -17 q-4 -13 1 -25 q11 -24 37 -18 q97 29 172 98 q84 78 115 189 q1 7 -7 11 q-8 4 -13 -3 ZM617 648 q-44 -78 -106 -141 q-49 40 -87 90 q13 25 22 53 q51 -4 102 -3 q34 1 69 1 ZM587 276 q-38 -60 -90 -106 q-46 -41 -103 -62 q-15 -5 -21 -19 q-3 -13 3 -25 q6 -11 19 -15 q12 -2 23 4 q60 31 107 81 q53 57 86 129 q3 12 -8 19 q-11 4 -16 -6 ZM524 362 q-28 -39 -63 -69 q-40 -29 -85 -45 q-21 -11 -14 -34 q4 -10 13 -17 q11 -7 23 -3 q59 18 99 65 q36 41 45 95 q0 6 -6 9 q-7 4 -12 -1 Z" /><glyph glyph-name="" unicode="&#x5012;" d="M301 220 q34 -1 69 -1 q-7 -120 1 -238 q-50 -15 -101 -26 q-9 -2 -9 -11 q2 -10 12 -12 q68 -8 136 0 q59 7 114 31 q19 11 13 32 q-10 23 -35 20 q-34 -8 -66 -16 q1 109 -7 219 q31 -1 62 4 q26 4 26 30 q-1 11 -9 19 q-8 5 -17 7 q-34 1 -66 -2 l-10 120 q27 2 54 10 q3 0 6 2 q6 -24 19 -44 q12 -21 36 -15 q26 12 22 40 q-9 30 -24 58 q-8 14 -14 29 q-24 52 -45 106 q-5 10 -15 7 q-9 -4 -7 -13 q5 -55 14 -108 l-1 0 q-69 -4 -137 -12 q44 120 83 243 q37 -10 76 -8 q21 3 24 24 q1 19 -17 25 q-40 6 -80 5 q-10 0 -19 0 q-10 0 -19 0 q-23 1 -45 1 q-16 -1 -30 -5 q-7 -3 -8 -9 q0 -6 5 -8 q31 -14 66 -18 q12 -2 25 -3 q-70 -132 -132 -266 q-8 -17 0 -32 q9 -14 26 -14 q51 -1 102 2 l-6 -123 l-77 -13 q-14 -4 -14 -18 q2 -17 19 -19 ZM654 754 q13 -217 17 -433 q1 -102 -5 -202 q-1 -3 -1 -5 q-2 -48 -7 -97 q-1 -13 -4 -25 q-1 -4 -3 -7 q-16 10 -31 21 q-24 12 -40 -8 q-7 -10 -6 -23 q2 -14 15 -22 q10 -6 19 -14 q12 -11 26 -21 q10 -6 21 -8 q23 -1 39 16 q21 27 27 61 q9 53 8 108 q0 19 1 38 q7 145 -3 290 q-13 166 -34 331 q-5 18 -23 18 q-16 -2 -16 -18 ZM258 772 q-34 -62 -72 -120 q-59 -87 -122 -170 q-12 -18 4 -33 q19 -15 39 0 q40 40 72 89 q0 -33 -1 -65 q-7 -96 -10 -192 q-5 -91 -10 -181 q-2 -21 -4 -42 q-4 -32 -6 -63 q-1 -26 4 -52 q5 -20 25 -21 q23 0 33 21 q7 24 8 49 q2 29 0 59 q0 19 0 39 q0 101 -1 202 q-2 95 -7 191 q-3 48 -7 96 q47 88 72 186 q1 6 -5 10 q-8 3 -12 -3 ZM589 569 q-3 -50 -7 -99 q-6 -73 -8 -147 q-2 -61 3 -122 q2 -23 24 -26 q25 0 30 26 q6 73 4 147 q-4 110 -15 221 q-4 14 -18 14 q-13 -2 -13 -14 Z" /><glyph glyph-name="" unicode="&#x5165;" d="M253 741 q59 -52 88 -125 q17 -43 28 -88 q11 -45 19 -91 q-24 -235 -199 -392 q-8 -7 -10 -17 q-1 -11 6 -20 q21 -19 45 -4 q67 56 111 132 q50 88 66 188 q-1 -3 1 -4 q17 -102 61 -194 q40 -81 113 -134 q26 -16 45 8 q8 12 7 27 q-2 16 -15 27 q-24 18 -43 40 q-29 35 -49 75 q-19 42 -33 87 q-18 60 -32 121 q-10 43 -21 86 q-15 56 -35 111 q-17 45 -42 86 q-38 62 -102 93 q-7 1 -11 -4 q-3 -5 2 -8 Z" /><glyph glyph-name="" unicode="&#x51fb;" d="M159 270 q-9 -150 -10 -300 q2 -24 27 -27 q43 0 86 -2 q102 -3 205 -3 q72 0 145 6 q13 -15 33 -10 q19 6 20 25 q-1 21 -1 41 q0 82 -4 164 q-3 51 -10 102 q-4 6 -11 7 q-9 1 -12 -7 q-9 -53 -12 -105 q-5 -79 -6 -158 q-89 3 -177 3 q3 6 3 14 q-1 126 -1 253 l0 96 q120 -3 240 5 q10 -1 17 7 q6 7 7 18 q-6 11 -15 20 q-7 6 -15 7 q-120 6 -240 8 q-1 85 -2 171 q96 -1 192 10 q16 3 18 20 q-2 16 -18 19 q-95 11 -190 11 l-2 0 q-1 45 -1 91 q-2 18 -20 20 q-19 -2 -19 -20 q-2 -46 -2 -91 q-102 -3 -202 -12 q-13 -5 -12 -18 q0 -13 12 -15 q100 -12 201 -14 q-3 -86 -3 -171 l-57 0 q-64 2 -128 -2 q-42 -3 -82 -13 q-9 -2 -9 -10 q0 -10 9 -14 q42 -14 86 -19 q68 -7 136 -6 l45 0 q-3 -114 -3 -228 q-3 -62 -2 -123 q-1 -8 3 -14 q-90 -2 -178 -7 q-11 135 -14 271 q0 11 -11 13 q-14 0 -16 -13 Z" /><glyph glyph-name="" unicode="&#x5206;" d="M249 419 q41 -8 84 -11 q-12 -41 -21 -82 q-15 -62 -32 -122 q-16 -49 -38 -95 q-33 -69 -70 -135 q-5 -8 -4 -17 q2 -11 11 -17 q22 -13 40 6 q79 106 120 232 q20 64 27 130 q4 48 0 97 q60 -3 121 -3 q11 -110 11 -219 q1 -66 -10 -130 q-14 -48 -58 -69 q-21 -8 -41 -1 q-16 10 -24 27 q-11 15 -29 10 q-20 -8 -17 -29 q7 -24 26 -42 q24 -21 57 -24 q33 -3 64 9 q31 15 51 42 q19 31 29 67 q11 55 13 112 q3 139 -11 279 q-5 28 -32 31 q-81 1 -161 -3 q-54 -3 -106 -11 q-11 -3 -12 -15 q-1 -13 12 -17 ZM414 783 q77 -166 162 -327 q31 -59 62 -118 q6 -13 20 -15 q13 -1 23 6 q22 16 11 41 q-34 57 -67 114 q-90 158 -187 312 q-7 9 -18 5 q-11 -6 -6 -18 ZM267 711 q-35 -97 -74 -191 q-35 -83 -76 -162 q-6 -11 -1 -22 q4 -10 14 -14 q20 -8 31 11 q47 94 84 192 q32 87 53 178 q2 12 -10 18 q-15 3 -21 -10 Z" /><glyph glyph-name="" unicode="&#x53d6;" d="M93 62 q123 20 245 51 q6 1 10 7 q-1 -98 5 -194 q2 -22 24 -26 q26 0 30 26 q9 175 4 350 q0 27 0 55 q-1 35 0 71 q2 87 -1 173 q-3 61 -14 121 q36 1 73 6 q15 3 14 19 q-3 18 -20 22 q-111 10 -221 3 q-55 -3 -110 -4 q-14 -2 -16 -15 q0 -16 16 -18 q26 -3 54 -4 q-12 -86 -10 -172 q-6 -4 -7 -11 q1 -9 7 -15 l0 -74 q-1 -11 -1 -21 q-2 -83 -2 -166 q1 -62 7 -124 q-49 -13 -95 -30 q-14 -7 -11 -21 q6 -12 19 -9 ZM464 448 q16 -139 76 -264 q-18 -50 -47 -94 q-23 -34 -60 -52 q-11 -5 -14 -17 q-2 -11 4 -20 q10 -19 32 -14 q41 15 69 48 q32 40 51 87 q55 -86 141 -141 q16 -8 30 5 q13 15 0 32 q-85 77 -144 177 q3 11 8 23 q63 191 74 394 q0 9 -6 15 q-8 8 -18 9 q-97 1 -193 -5 q-13 -2 -15 -14 q0 -14 15 -16 q82 -9 166 -12 q-16 -144 -55 -283 l-12 -44 q-46 91 -73 190 q-6 11 -19 9 q-11 -2 -10 -13 ZM235 320 q57 -1 115 -3 q-2 -86 -2 -171 q-6 7 -15 6 q-53 -6 -104 -18 q7 92 6 186 ZM363 695 q-15 -75 -15 -150 q-59 2 -116 -3 q0 80 -10 160 q70 -7 141 -7 ZM233 433 q-1 32 -1 65 q57 -5 116 -2 q1 -68 2 -135 q-59 2 -116 -6 q-1 39 -1 78 Z" /><glyph glyph-name="" unicode="&#x540d;" d="M276 496 q41 -54 71 -114 q-106 -131 -218 -255 q-8 -9 -2 -18 q9 -9 19 -1 q97 76 182 167 q-6 -53 -7 -106 q-3 -86 -1 -170 q0 -20 1 -41 q-4 -6 0 -14 l0 -12 q-1 -9 5 -18 q6 -9 17 -10 q11 -1 19 5 q10 9 12 21 q112 -15 225 -6 q15 -10 33 -3 q15 9 16 26 q2 95 2 190 q-1 110 3 220 q-1 13 -11 23 q-9 8 -21 8 q-28 -2 -55 -2 q-75 -1 -149 -8 q113 142 204 301 q6 13 0 27 q-8 14 -24 17 q-41 0 -81 3 q-61 4 -121 5 l24 38 q6 12 -3 22 q-5 5 -12 6 q-8 0 -12 -5 q-61 -75 -123 -147 q-20 -23 -41 -45 q-43 -41 -78 -89 q-9 -19 6 -33 q14 -12 29 -1 q48 36 87 82 q47 55 87 116 q94 -10 189 -9 q-74 -119 -158 -230 q-35 56 -91 90 q-14 5 -23 -5 q-10 -13 0 -25 ZM374 -31 q3 104 0 208 q-2 69 -10 139 l17 18 q103 -12 208 -10 q-9 -174 -3 -347 q-50 5 -99 3 q-57 -3 -113 -11 Z" /><glyph glyph-name="" unicode="&#x5728;" d="M388 822 l-35 -117 l-182 -10 q-16 -3 -19 -19 q0 -18 19 -20 l164 -9 q-40 -126 -80 -250 q-34 -104 -70 -205 q-11 -29 -23 -57 q-18 -43 -33 -86 q-12 -36 -18 -73 q-2 -17 13 -24 q15 -4 24 8 q19 29 33 59 q19 45 34 92 q7 19 14 39 q13 38 26 77 q-11 -144 3 -286 q3 -15 19 -18 q14 -1 17 13 q14 101 15 204 q2 119 -5 239 q40 132 73 267 q138 -8 276 5 q20 2 24 22 q-1 23 -24 27 q-131 13 -262 7 q12 53 23 108 q1 13 -11 16 q-12 1 -15 -9 ZM335 -41 q80 -15 161 -17 q94 -2 187 7 q22 4 26 25 q-1 26 -26 29 q-86 8 -171 7 q16 167 7 336 q58 -1 116 5 q18 1 21 20 q0 21 -21 25 q-60 4 -119 4 l-13 195 q-2 13 -15 15 q-16 0 -18 -15 l-13 -197 q-63 -4 -125 -10 q-13 -2 -15 -14 q0 -14 15 -16 q61 -8 123 -10 q-9 -170 8 -339 q-65 -4 -128 -15 q-12 -3 -13 -15 q-1 -15 13 -20 Z" /><glyph glyph-name="" unicode="&#x5929;" d="M214 727 q-16 -3 -19 -19 q0 -18 19 -20 l157 -12 q-7 -98 -21 -195 q-99 -4 -196 -8 q-11 -2 -12 -12 q0 -9 9 -12 q95 -14 191 -23 l-15 -104 q-12 -78 -41 -151 q-36 -83 -89 -157 q-22 -30 -43 -63 q-11 -20 5 -36 q9 -7 21 -8 q12 0 21 8 q75 88 119 196 q49 127 67 262 q23 -117 74 -224 q58 -122 136 -233 q9 -13 26 -16 q15 -1 28 7 q23 20 10 47 q-36 62 -74 122 q-39 60 -76 120 q-28 46 -53 93 q-33 64 -55 133 q97 -7 195 3 q20 2 24 23 q0 24 -24 28 q-100 9 -200 6 q5 96 2 193 q83 -6 168 -7 q25 2 29 28 q0 13 -7 23 q-9 11 -22 12 q-177 -3 -354 -4 Z" /><glyph glyph-name="" unicode="&#x59cb;" d="M421 -68 q60 -8 121 -10 q40 -1 81 5 q14 -12 31 -6 q16 8 18 26 q4 72 5 145 q0 102 -3 205 q-2 44 -2 88 q-1 12 -10 21 q-8 8 -19 8 q-45 -5 -89 -4 q-68 2 -133 -10 l0 8 q-2 11 -12 13 q-14 0 -16 -13 q-17 -126 -24 -252 q-5 -109 4 -218 q4 -18 23 -22 q18 -1 21 16 l0 1 q1 0 4 -1 ZM85 616 q50 -12 101 -19 q-21 -124 -36 -248 q-2 -13 -4 -26 q-7 -41 -6 -81 q3 -37 22 -68 l45 -79 q-17 -38 -47 -67 q-24 -23 -57 -29 q-11 -1 -16 -11 q-4 -9 -2 -19 q5 -20 26 -21 q39 5 70 28 q35 27 58 66 q30 -51 65 -100 q15 -17 35 -6 q16 13 9 32 q-37 70 -80 138 q13 36 23 74 q52 205 26 416 q8 11 6 25 q-4 13 -16 15 q-36 4 -71 6 q4 59 4 120 q-2 9 -12 10 q-9 0 -11 -7 q-13 -61 -23 -122 q-54 0 -106 -4 q-10 -2 -12 -12 q0 -9 9 -11 ZM424 362 q63 -9 127 -5 q32 1 65 1 q-1 -50 -2 -100 q-5 -138 -1 -275 q-97 18 -191 -9 q8 89 8 179 q0 105 -6 209 ZM585 645 q40 -54 59 -119 q-112 1 -223 0 q51 126 114 249 q3 7 -3 12 q-6 4 -10 -1 q-49 -58 -88 -123 q-44 -74 -77 -153 q-7 -16 0 -31 q9 -12 24 -11 q132 -4 265 -3 q5 -1 11 1 q-1 -4 1 -7 q1 -11 8 -20 q9 -8 22 -8 q12 1 21 9 q8 12 6 26 q-25 114 -108 197 q-10 5 -20 -2 q-8 -8 -2 -16 ZM196 282 q0 31 6 62 q3 21 6 43 q12 102 24 205 q24 -3 49 -3 q-3 -43 -5 -86 q-2 -64 -7 -128 q-4 -53 -13 -105 q-9 -55 -23 -107 q-2 0 -1 2 q-18 26 -29 56 q-8 30 -7 61 Z" /><glyph glyph-name="" unicode="&#x5efa;" d="M704 550 q-43 2 -85 2 l0 21 q0 35 -2 70 q-1 11 -8 20 q-8 9 -19 10 l-16 2 q-44 2 -87 3 q-5 48 -15 97 q-3 4 -6 3 q-5 -1 -5 -6 q-6 -47 -9 -94 q-64 -2 -126 -15 q-5 -3 -6 -8 l0 -1 q0 -6 6 -6 q62 -11 125 -17 q-3 -41 -2 -82 q-91 -4 -180 -11 q-6 -1 -6 -6 q0 -6 6 -6 q89 -8 180 -12 l0 -78 q-10 -1 -19 -1 q-59 -3 -116 -15 q-2 -3 -3 -6 l0 -2 l3 -3 q57 -12 117 -12 l18 0 l0 -84 q-30 -3 -59 -11 q-25 -7 -46 -20 q-3 -1 -3 -3 l0 -2 q0 -6 5 -9 q26 -8 54 -8 q10 -1 21 -1 q13 0 27 -1 l0 -89 l-18 -1 q-8 -2 -15 -2 q-27 0 -51 -9 q-15 -7 -23 -22 l0 -2 q-1 -6 5 -7 q35 -1 70 -6 l32 -5 q-1 -65 1 -129 q0 -7 3 -14 q-82 14 -151 58 q-46 32 -84 72 q18 49 31 100 q15 59 28 119 q3 16 7 33 l4 24 q0 3 2 7 q-1 9 -5 17 q-8 8 -19 10 l-47 8 q-26 3 -51 7 l6 11 q52 92 95 190 q2 6 3 14 q-1 6 -3 13 q-8 11 -21 14 q-21 2 -41 6 q-52 9 -103 10 q-9 0 -12 -7 l0 -2 q-1 -5 4 -7 q53 -26 111 -42 l-51 -102 q-25 -53 -52 -104 q-4 -6 -3 -13 q-1 -7 3 -12 q7 -14 22 -17 l63 -9 q22 -3 45 -6 q-23 -106 -58 -208 q-44 55 -86 112 q-2 2 -4 2 q-3 -3 -3 -6 l0 -2 q33 -74 78 -142 q-37 -87 -93 -161 q-5 -7 -5 -17 q-1 -12 9 -21 q12 -10 26 -1 q32 26 56 59 q29 39 50 84 q36 -47 84 -82 q58 -44 128 -64 q70 -20 144 -20 q42 1 85 6 q22 4 24 27 q-2 23 -24 26 q-35 4 -70 6 q-37 2 -72 6 q7 10 7 21 q2 41 2 83 l0 43 q46 -3 94 -1 q11 0 20 8 q8 10 9 23 q0 12 -8 21 q-9 9 -21 9 q-48 1 -94 -1 q-1 40 -3 81 l4 0 q26 -1 53 -3 q13 -1 22 10 q4 8 5 18 q-1 9 -5 18 q-8 14 -25 17 l-56 0 q-1 25 -1 51 l-2 27 q4 -1 9 -1 q38 -2 77 -1 q28 0 57 6 q16 3 18 21 q-2 22 -23 29 q-8 0 -16 1 q-1 28 1 57 l0 5 l84 0 q19 2 20 22 q-3 2 -5 4 q-8 12 -21 14 ZM563 618 l0 -66 q-35 -2 -69 -2 q-1 38 -3 77 l72 -9 ZM565 445 q-32 -2 -62 -6 q-4 0 -7 -1 q0 30 -2 61 l0 11 q34 -3 69 -2 l0 -24 q0 -20 2 -39 Z" /><glyph glyph-name="" unicode="&#x5f00;" d="M129 390 l157 -7 q-9 -111 -38 -219 q-26 -96 -71 -183 q-6 -11 -2 -23 q5 -10 16 -15 q21 -9 34 10 q48 92 72 194 q27 116 31 235 q67 -4 136 -4 l0 -58 q-1 -56 -2 -111 q-2 -83 -2 -166 q0 -68 6 -137 q4 -30 35 -31 q26 5 29 31 q6 138 -2 276 q-4 68 -5 138 q-2 28 -1 57 q66 0 133 3 q23 2 26 26 q1 27 -26 30 q-67 0 -133 -1 q-1 7 -1 15 q0 64 -3 128 q-3 47 -9 94 q41 1 82 7 q22 4 23 27 q-1 10 -8 16 q-7 5 -15 6 q-129 3 -258 -4 q-64 -3 -128 -5 q-13 -2 -14 -15 q-1 -10 10 -12 q45 -7 92 -11 q3 -128 -4 -255 q-80 -5 -160 -6 q-13 -2 -15 -14 q0 -15 15 -16 ZM472 671 q-13 -119 -9 -238 l-134 -5 q-1 125 -9 250 q75 -8 152 -7 Z" /><glyph glyph-name="" unicode="&#x6211;" d="M96 442 q74 -14 150 -12 q-3 -130 -3 -260 q-79 -51 -157 -102 q-13 -8 -16 -23 q-1 -13 6 -24 q18 -21 44 -10 q64 34 123 79 q0 -85 3 -168 q1 -25 25 -29 q30 0 34 29 q3 110 4 222 q58 51 119 101 q8 11 -1 22 q-9 9 -20 4 q-50 -30 -98 -60 q-1 110 -6 220 l39 0 l112 -4 q6 -93 23 -183 q10 -65 30 -127 q-65 -79 -139 -148 q-7 -5 -10 -14 q-2 -10 4 -19 q16 -18 39 -11 q36 19 66 45 q38 33 68 74 q21 -48 55 -89 q30 -36 70 -60 q9 -5 20 -2 q10 4 16 13 q11 17 -3 31 q-81 69 -118 169 q57 103 79 220 q1 11 -9 15 q-12 4 -15 -7 q-29 -84 -79 -156 q-15 54 -24 111 q-14 68 -20 137 q75 -2 150 2 q23 4 26 28 q1 12 -5 21 q-9 10 -21 11 q-79 4 -157 1 q-11 125 -21 250 q-4 13 -18 13 q-12 -1 -12 -13 q-3 -127 2 -252 q-40 -2 -80 -2 q-36 -1 -72 0 q-5 73 -13 146 q56 43 91 105 q3 9 -5 16 q-7 5 -13 -1 q-45 -47 -101 -76 q-64 -33 -133 -52 q-21 -10 -18 -33 q4 -20 25 -19 q64 5 120 38 q-3 -62 -4 -123 q-77 2 -152 -13 q-11 -4 -12 -15 q0 -12 12 -16 ZM522 725 q34 -45 60 -94 q5 -13 10 -27 q6 -22 16 -42 q8 -16 24 -24 q21 -9 36 9 q11 22 3 46 q-13 36 -36 66 q-39 52 -96 83 q-10 4 -17 -3 q-6 -7 0 -14 Z" /><glyph glyph-name="" unicode="&#x622a;" d="M232 -59 q127 -22 256 -6 q17 3 20 20 q-1 20 -20 23 q-57 8 -114 8 q4 70 6 141 q45 -3 91 6 q15 5 14 22 q-1 14 -14 18 q-45 6 -90 5 q0 43 -1 87 q40 1 81 7 q14 4 15 19 q1 8 -3 15 q-5 7 -12 9 q-41 5 -82 6 q-2 40 -5 80 q40 -1 80 3 q16 2 19 19 q0 19 -19 23 l-45 3 q-9 22 -23 42 q-17 26 -36 51 q-10 11 -24 6 q-14 -9 -7 -24 q11 -29 27 -56 l9 -18 q-2 0 -2 -1 q-64 -3 -126 -7 q17 39 31 80 q2 10 -8 16 q-12 6 -19 -4 q-46 -85 -100 -164 q-20 -28 -38 -57 q-9 -17 5 -30 q6 -6 16 -7 q9 0 16 8 q30 36 55 77 q-5 -87 -6 -174 q-2 -35 -4 -69 q-4 -52 -6 -104 q-1 -42 5 -85 q4 -20 24 -23 q19 -1 24 17 l4 21 q2 -2 6 -3 ZM108 570 q118 -9 236 -15 q80 -3 160 -2 q-3 -108 7 -214 q9 -93 33 -183 q-30 -64 -56 -128 q-5 -15 8 -24 q16 -7 30 3 q26 27 46 61 q26 -73 68 -140 q11 -16 32 -13 q17 4 22 20 q15 54 29 107 q2 12 -5 23 q-8 10 -19 12 q-24 3 -32 -19 l-10 -37 q-30 60 -49 125 q34 105 36 216 q-2 13 -15 14 q-12 1 -15 -10 q-12 -60 -33 -117 q-31 151 -35 306 q62 1 125 10 q14 2 17 17 q-1 17 -17 21 q-64 7 -127 10 q-2 60 -1 122 q-1 10 -12 12 q-12 0 -14 -12 q-7 -61 -10 -121 q-81 1 -161 -2 q-2 28 -3 58 q43 -1 86 3 q16 2 18 18 q0 19 -18 21 l-88 0 q-2 26 -2 53 q-2 15 -17 17 q-18 0 -20 -17 l-3 -54 q-56 -1 -111 2 q-15 -1 -17 -15 q0 -17 17 -20 q54 -6 109 -7 l0 -1 q-3 -30 -2 -60 l-187 -12 q-12 -2 -14 -13 q0 -13 14 -15 ZM243 141 q44 -7 89 -11 q0 -73 5 -145 q-54 -1 -105 -12 l-2 0 q5 62 3 126 q0 23 0 46 q4 -4 10 -4 ZM224 409 q59 -5 119 -8 l-6 -80 q-54 -2 -105 -13 q-1 -1 -2 -1 q-3 51 -6 102 ZM232 279 q50 -12 103 -14 l-3 -89 q-45 -4 -89 -5 q-6 0 -10 -4 l0 6 q0 53 -2 106 l1 0 ZM554 728 q12 -32 31 -60 q17 -25 43 -39 q16 -9 28 4 q12 16 1 34 q-14 15 -28 29 q-24 21 -42 46 q-11 11 -25 5 q-13 -6 -8 -19 Z" /><glyph glyph-name="" unicode="&#x62e9;" d="M337 647 q33 -76 88 -136 q-68 -68 -138 -132 q-21 -21 -3 -44 q9 -11 23 -13 q16 -2 29 9 q72 61 136 132 q103 -97 240 -135 q21 -5 30 15 q7 25 -16 37 q-116 42 -211 118 l-7 5 q83 97 158 203 q9 13 1 28 q-9 16 -27 19 q-83 5 -166 3 q-72 -2 -142 -14 q-15 -4 -14 -19 q2 -16 19 -19 q121 -11 244 -11 q-56 -76 -120 -144 q-52 57 -99 118 q-9 8 -19 2 q-11 -9 -6 -22 ZM97 163 q41 15 80 37 q-2 -81 0 -161 q1 -52 7 -105 q2 -17 19 -20 q20 0 24 20 q11 150 6 301 q31 23 58 53 q10 14 1 30 q-9 13 -24 9 q-19 -7 -37 -14 l0 31 l-2 193 q35 1 70 10 q13 3 14 18 q1 16 -14 22 q-36 6 -72 10 q-2 79 -5 159 q-2 13 -15 15 q-16 0 -18 -15 q-4 -80 -6 -159 q-46 -1 -88 -14 q-11 -5 -12 -15 q0 -13 12 -17 q42 -15 87 -15 q-2 -96 -2 -192 q0 -31 -1 -60 q-57 -37 -103 -84 q-11 -14 -2 -29 q8 -13 23 -8 ZM308 136 l130 -7 q0 -113 8 -225 q2 -21 24 -25 q25 0 29 25 q3 111 -1 223 q78 -4 158 -1 q23 2 26 25 q1 27 -26 31 q-81 2 -160 -1 q0 55 -1 111 l120 -6 q14 -1 23 10 q7 10 7 23 q-4 27 -30 29 q-61 -1 -121 -4 q-2 40 -6 80 q-3 12 -16 14 q-14 0 -17 -14 q-6 -42 -8 -84 q-46 -4 -90 -8 q-18 -4 -18 -21 q2 -15 18 -15 l86 -2 q-4 -58 -4 -116 l-131 -6 q-15 -2 -18 -17 q0 -17 18 -19 Z" /><glyph glyph-name="" unicode="&#x6301;" d="M327 248 q-8 12 -22 8 q-26 -10 -50 -23 q-1 145 -6 290 q33 1 66 7 q14 3 15 18 q-1 15 -15 21 q-35 7 -69 8 q-3 43 -3 87 q-1 35 -3 70 q-2 14 -16 15 q-15 -1 -15 -15 q-4 -44 -3 -87 q-3 -35 -3 -70 q-45 -2 -87 -14 q-12 -3 -12 -15 q0 -12 12 -15 q41 -12 84 -13 q-9 -165 -6 -329 q-42 -29 -77 -64 q-11 -11 -4 -24 q6 -11 19 -11 q4 -1 9 2 q27 10 54 25 q2 -98 9 -195 q2 -18 20 -20 q18 2 19 20 q8 115 11 231 q38 25 70 59 q5 8 7 18 q1 8 -4 16 ZM419 -67 q16 -19 40 -29 q27 -8 55 2 q28 12 49 34 q21 24 34 53 q24 68 31 141 q7 87 1 174 q45 0 90 5 q18 2 22 20 q-1 22 -22 26 q-48 4 -95 7 l-9 68 q-5 19 -26 19 q-11 -1 -19 -8 q-8 -7 -7 -18 q0 -31 3 -60 q-119 -3 -236 -14 q-15 -3 -15 -19 q1 -14 15 -14 q72 -1 144 -6 q47 -3 96 -5 q6 -71 5 -142 q-2 -69 -17 -135 q-8 -29 -24 -52 q-13 -19 -32 -32 q-14 -8 -30 -7 q-19 2 -34 13 q-10 8 -18 0 q-8 -10 -1 -21 ZM510 766 l-10 -76 q-72 -6 -143 -10 q-14 -2 -16 -15 q0 -16 16 -18 l137 -10 q-5 -53 -1 -105 q-84 -6 -167 -11 q-14 -1 -16 -14 q0 -16 16 -17 q37 -2 75 -5 q89 -6 179 -9 q63 0 127 6 q19 2 22 21 q0 22 -22 26 q-77 6 -154 5 q2 50 -2 100 q64 -2 129 7 q15 4 16 20 q0 8 -4 16 q-4 7 -12 9 q-68 8 -135 6 q-5 36 -8 74 q-2 11 -13 13 q-13 -1 -14 -13 ZM414 262 q27 -41 45 -87 q5 -15 9 -30 q6 -29 21 -54 q5 -9 16 -9 q11 2 16 13 q7 20 6 41 q-3 30 -18 56 q-30 53 -83 83 q-7 2 -11 -3 q-4 -5 -1 -10 Z" /><glyph glyph-name="" unicode="&#x6539;" d="M424 740 q3 -205 -43 -404 q-2 -19 16 -27 q15 -5 23 10 q23 55 37 115 q1 -9 3 -18 q11 -73 26 -145 q12 -55 28 -109 q-27 -67 -70 -125 q-39 -49 -91 -84 q-20 -15 -7 -36 q13 -16 32 -6 q104 71 159 185 q39 -103 116 -184 q24 -21 51 -2 q11 11 15 27 q1 18 -10 31 q-84 96 -135 213 q5 15 11 32 q35 112 51 230 q9 57 13 115 q2 39 -2 78 q25 1 50 7 q15 4 17 20 q0 19 -17 26 q-52 12 -104 10 q-61 -2 -120 -13 q-4 29 -8 59 q-4 15 -21 15 q-18 -2 -20 -20 ZM113 356 l29 -4 q-13 -201 -5 -402 q1 -18 17 -24 q16 -5 28 5 q82 78 181 134 q21 15 11 39 q-6 11 -17 17 q-13 4 -25 -2 q-76 -45 -141 -104 q4 166 -6 333 q65 -7 130 0 q8 0 15 5 q21 6 24 30 q1 80 0 161 q-1 71 1 142 q-4 27 -31 31 l-197 -8 q-13 -3 -15 -16 q0 -11 11 -14 q83 -21 169 -23 q-5 -126 -2 -252 q-36 2 -71 0 q-53 -4 -106 -10 q-16 -3 -18 -18 q0 -17 18 -20 ZM475 644 q68 -9 138 -10 q-12 -66 -16 -131 q-15 -119 -47 -233 l-6 -20 q-37 97 -69 196 q-5 9 -14 6 q18 95 14 192 Z" /><glyph glyph-name="" unicode="&#x6570;" d="M548 481 q-3 13 -17 14 q-12 -1 -13 -12 q-8 -163 26 -321 q-42 -115 -104 -218 q-9 -18 7 -31 q20 -12 35 5 q49 75 86 155 q33 -105 104 -191 q19 -18 43 -4 q11 7 15 20 q3 14 -4 25 q-79 115 -120 248 q38 112 55 230 q14 100 9 202 q25 1 50 6 q13 3 14 17 q1 17 -14 22 q-47 7 -95 6 q-55 -1 -109 -9 l0 66 q-2 14 -15 16 q-17 0 -19 -16 q-7 -99 -27 -197 q-22 -110 -54 -217 q-3 -19 14 -27 q16 -4 25 10 q66 158 74 331 q53 -8 107 -9 q-2 -166 -43 -326 q-21 101 -30 205 ZM205 334 q-15 -56 -16 -113 l-61 -4 q-12 -2 -14 -13 q0 -14 14 -15 q30 -2 61 -4 q2 -52 17 -102 q16 -50 48 -93 q-21 -16 -45 -25 q-20 -6 -41 -5 q-12 2 -21 -7 q-9 -8 -12 -21 q-3 -12 3 -22 q7 -8 18 -11 q37 -9 75 1 q40 13 72 41 q36 -28 81 -43 q25 -6 36 18 q4 12 0 25 q-6 13 -19 17 q-32 9 -58 27 q29 41 51 88 q26 59 46 121 q2 10 -4 19 q-8 9 -19 11 q-96 7 -191 0 q-3 51 6 103 q0 13 -12 16 q-12 2 -15 -9 ZM137 559 q-13 -2 -15 -14 q0 -15 15 -16 q56 -4 114 -5 q-19 -28 -39 -54 q-30 -40 -57 -82 q-23 -34 -41 -70 q-4 -9 2 -16 q9 -6 18 1 q36 30 65 69 q32 44 57 94 q1 -76 4 -151 q0 -9 5 -16 q6 -7 15 -8 q23 1 28 24 q4 77 5 156 l13 -30 q9 -25 22 -48 q9 -15 23 -26 q13 -10 27 -2 q12 8 9 23 q-7 21 -19 39 q-16 22 -34 42 q-5 5 -9 11 q-15 19 -32 37 l0 7 q62 -1 124 8 q11 2 11 14 q-3 14 -16 18 q-41 4 -81 5 q1 0 3 1 q30 7 43 35 q8 19 11 39 q2 25 0 50 q-1 10 -10 14 q-12 1 -18 -9 q-9 -20 -21 -37 q-14 -21 -24 -44 q-5 -16 -3 -32 q2 -15 16 -17 q-19 0 -37 0 q-5 96 -17 193 q-3 11 -15 11 q-13 -2 -15 -14 q-6 -96 -7 -192 q-15 -2 -30 -2 l3 8 q1 27 -10 53 q-17 38 -44 71 q-8 8 -18 4 q-10 -6 -5 -17 q8 -20 14 -41 q7 -25 17 -49 q6 -15 16 -29 q-1 -2 1 -2 l-64 -4 ZM383 176 q-33 -81 -88 -147 q-24 29 -39 63 q-19 44 -25 91 q75 -7 152 -7 Z" /><glyph glyph-name="" unicode="&#x65b0;" d="M690 744 q-96 -45 -202 -45 q-24 -3 -26 -26 q-2 -197 -8 -393 q-4 -131 -6 -262 q1 -24 25 -27 q12 -1 22 6 q10 7 11 21 q9 230 8 461 q43 -5 88 -8 q-12 -90 -10 -181 q0 -32 0 -64 q-1 -32 -1 -64 q-5 -127 5 -253 q2 -21 23 -24 q24 0 29 24 q7 115 3 230 q0 29 0 58 q-1 26 -1 53 q1 64 -1 127 q-2 45 -8 91 q47 -2 95 4 q15 3 16 20 q0 18 -16 26 q-50 13 -102 13 q-61 0 -120 -10 q0 63 -1 127 q104 11 195 66 q12 7 6 21 q-9 15 -24 9 ZM114 403 q76 -15 155 -13 q-5 -43 -7 -85 q-80 -6 -157 -22 q-13 -4 -13 -17 q2 -16 18 -18 l149 -7 l-3 -69 q-1 -23 -2 -46 q0 -54 -6 -108 q-5 -37 -17 -73 q-5 -14 7 -22 q14 -8 28 1 q25 24 34 58 q6 21 6 43 q1 29 0 58 l-6 157 q39 -1 78 2 q25 4 29 30 q0 23 -21 28 q-45 5 -89 6 q-3 42 -7 84 q58 1 117 8 q21 3 22 25 q-4 19 -22 21 q-85 6 -170 2 l0 1 q-4 42 -16 82 q-15 46 -21 95 q-2 10 -13 12 q-9 0 -11 -9 q-11 -57 -7 -114 q4 -38 23 -71 q-40 -5 -78 -13 q-10 -4 -10 -14 q1 -10 10 -12 ZM109 675 q81 -8 163 -11 q71 -1 143 5 q19 2 22 21 q0 22 -22 26 q-60 3 -120 2 q-28 31 -58 60 q-5 4 -12 6 q-8 0 -13 -5 q-14 -14 -3 -30 q12 -17 25 -33 q-63 -4 -125 -8 q-14 -3 -16 -16 q0 -16 16 -17 ZM187 149 q-35 -52 -56 -110 q-13 -38 -7 -77 q4 -15 22 -17 q14 -1 22 11 q11 32 14 64 q2 12 4 25 q7 47 25 93 q2 9 -7 15 q-10 4 -17 -4 ZM344 153 q16 -46 25 -93 q0 -7 1 -13 q3 -39 17 -76 q8 -14 25 -10 q14 3 18 16 q5 39 -8 77 q-21 58 -54 110 q-8 8 -18 4 q-9 -6 -6 -15 ZM337 622 q-24 -70 -32 -143 q0 -12 12 -16 q9 -4 17 4 q22 30 31 68 q8 43 1 87 q-3 9 -13 10 q-12 0 -16 -10 Z" /><glyph glyph-name="" unicode="&#x65e5;" d="M192 677 q-2 -141 -7 -280 q-9 -210 -9 -420 q1 -19 20 -22 q23 0 28 22 q36 -2 72 -6 q87 -9 175 -11 q61 0 121 10 q9 3 14 10 q5 9 4 18 q3 7 4 16 q1 221 -7 442 q-4 110 -6 221 q-2 19 -20 27 q-27 9 -56 6 q-10 0 -20 1 q-140 10 -275 -20 l-6 -3 q-9 9 -22 5 q-10 -5 -10 -16 ZM234 663 q67 -7 135 -5 q46 0 92 -1 q13 -2 26 -4 q26 -6 54 -6 q1 -23 1 -46 q1 -121 2 -241 l-8 2 q-148 14 -295 -3 q-4 152 -13 305 q2 -2 6 -1 ZM241 313 q147 -17 295 -2 q4 0 9 2 q1 -146 7 -290 q-54 5 -107 4 q-77 -2 -153 -11 q-32 -3 -64 -5 q13 150 13 302 Z" /><glyph glyph-name="" unicode="&#x65f6;" d="M128 659 q-2 -54 -5 -108 q-6 -126 -7 -252 q-1 -90 5 -179 q0 -16 13 -22 q15 -6 27 5 q38 -5 76 -10 q20 -5 41 -5 q13 0 27 5 q10 0 18 8 q7 8 7 19 q3 216 -7 432 q-1 11 0 22 q2 30 -3 60 q-4 19 -17 33 q-19 12 -41 11 q-37 0 -74 -7 q-14 -3 -28 -5 q-7 10 -20 8 q-11 -4 -12 -15 ZM603 785 q-2 -62 -1 -123 q-115 -1 -229 -11 q-14 -2 -16 -15 q0 -16 16 -17 q114 -11 229 -11 q0 -155 -1 -309 q-1 -15 -1 -30 q0 -97 -13 -193 q-5 -39 -23 -73 q-15 -21 -38 -31 q-33 -12 -65 3 q-34 18 -59 48 q-16 15 -35 3 q-9 -6 -13 -17 q-4 -10 3 -21 q30 -48 81 -72 q45 -22 95 -15 q44 10 71 46 q17 23 28 51 q13 33 19 69 q8 57 10 115 q4 83 3 165 q0 35 0 70 q-2 96 -7 192 q27 1 55 5 q17 2 20 19 q-1 19 -20 23 q-30 2 -60 4 q-6 65 -16 130 q-4 12 -17 11 q-14 -2 -16 -16 ZM163 633 q31 1 62 -3 q12 -2 24 -6 q6 -2 11 -6 q5 -7 7 -15 q4 -13 6 -25 q5 -45 2 -89 q-2 -30 -1 -59 q0 -18 1 -36 q-52 3 -103 -5 q-4 122 -9 244 ZM424 478 q13 -77 35 -151 q18 -65 47 -125 q9 -16 27 -13 q22 4 23 26 q-7 68 -29 134 q-26 75 -66 144 q-9 13 -23 9 q-16 -7 -14 -24 ZM173 344 q50 -9 102 -6 q1 -93 0 -186 q-24 0 -46 -1 q-30 -1 -59 -6 q5 99 3 199 Z" /><glyph glyph-name="" unicode="&#x671f;" d="M189 490 q1 -2 3 -2 q-8 -154 -17 -306 q-43 -5 -84 -11 q-9 -2 -9 -11 q2 -11 12 -13 q172 -23 347 -16 q17 0 26 15 q-5 -79 -7 -157 q1 -30 31 -35 q35 1 42 35 q11 130 7 261 q15 2 32 3 q34 -1 69 -6 q2 -2 5 -1 q-5 -152 2 -302 q2 -23 24 -27 q27 1 32 27 q7 96 8 193 q-1 117 -6 235 q-3 78 -5 156 q-1 16 0 33 q5 48 0 97 q-3 29 -22 52 q-13 9 -28 13 q-18 4 -37 5 q-57 -1 -113 -15 q-6 1 -9 -3 l-1 0 q-6 -4 -3 -10 q-8 -107 -8 -213 q0 -71 -1 -141 q-3 -85 -9 -169 q-9 18 -29 20 l-37 0 q4 42 3 85 q-1 52 -5 105 q-3 33 -4 68 q-7 81 -15 163 q41 -1 82 3 q16 2 19 19 q0 20 -19 23 l-88 3 l-10 81 q-4 12 -17 11 q-16 -1 -17 -16 q2 -38 4 -76 q-53 -2 -104 -4 l-3 80 q-2 10 -12 12 q-13 0 -14 -12 l-4 -82 q-38 -4 -75 -8 q-8 -2 -10 -9 q0 -10 10 -10 q36 -7 74 -9 l-6 -112 q-2 -2 -4 -2 q-6 -3 -6 -9 q0 -7 6 -11 ZM509 696 q11 -2 22 -3 q31 -1 60 -10 q16 0 30 -8 q14 -12 20 -30 q0 -30 2 -59 q0 -56 2 -111 q-57 4 -113 7 q-5 107 -23 214 ZM537 360 l-3 91 q54 -10 109 -17 q1 -1 3 -1 q0 -26 1 -52 l0 -79 q-55 1 -108 -11 q-2 34 -2 69 ZM235 327 q19 0 39 0 q33 -3 67 -4 q-4 -64 1 -127 q-57 -3 -112 -7 q3 68 5 138 ZM340 618 l3 -97 q-37 2 -73 0 q-18 -1 -34 -1 q-1 51 -2 102 q52 -5 106 -4 ZM236 476 l28 -3 q39 -8 80 -9 l0 -24 q0 -31 -1 -60 q-38 1 -75 -3 q-17 -3 -33 -3 q1 50 1 102 ZM330 99 q4 -68 13 -134 q5 -26 31 -27 q13 2 21 10 q8 12 5 25 q-19 65 -40 130 q-6 11 -19 10 q-11 -3 -11 -14 ZM205 115 q-13 -72 -35 -140 q-5 -22 16 -31 q11 -3 21 0 q11 6 14 17 q14 74 9 151 q-3 10 -14 12 q-10 0 -11 -9 Z" /><glyph glyph-name="" unicode="&#x6b62;" d="M243 530 q-21 -247 -11 -494 q-65 -6 -129 -13 q-15 -3 -15 -18 q1 -12 15 -13 q58 -1 116 -2 q232 -9 465 -6 q9 1 18 6 q8 8 10 18 q-1 27 -28 32 q-118 10 -236 8 q4 155 5 311 q54 -5 109 -3 q27 0 54 0 q24 0 28 25 q1 12 -6 22 q-9 10 -22 11 q-27 -1 -54 -1 q-55 1 -109 -3 q-2 197 -13 394 q-2 13 -16 16 q-16 0 -18 -16 q-13 -177 -17 -353 q-3 -202 1 -404 q-50 -3 -99 -6 q5 244 -6 489 q-3 17 -20 19 q-19 0 -22 -19 Z" /><glyph glyph-name="" unicode="&#x6d88;" d="M332 455 q-10 -145 -13 -290 q-1 -27 -1 -53 q-3 -63 -1 -124 q1 -44 11 -88 q3 -12 16 -13 q15 0 20 13 q8 43 10 86 q2 49 1 99 q67 -13 136 -17 q61 -3 121 3 q1 -90 9 -180 q2 -18 20 -21 q22 0 25 21 q3 131 3 262 q0 150 4 301 q-3 21 -22 28 q-67 10 -134 11 q1 35 -4 70 q-1 17 -2 34 l-12 162 q-2 8 -10 9 q-9 0 -10 -9 q-5 -82 -11 -162 q-1 -14 -3 -28 q-5 -39 -3 -77 q-64 -5 -124 -25 q-9 5 -18 1 q-8 -4 -8 -13 ZM374 165 q-1 61 -2 122 q128 -20 259 -11 q-1 -74 0 -146 q-60 6 -121 3 q-69 -3 -136 -14 l0 46 ZM364 440 q52 -14 106 -17 q64 -3 128 0 q18 0 36 1 l-2 -94 q-132 17 -262 -3 l-6 113 ZM268 381 q-56 -118 -87 -244 q-4 -15 -9 -30 q-19 -63 -27 -127 q-3 -40 8 -79 q5 -12 18 -14 q12 -1 19 9 q13 28 20 58 q10 46 13 92 q2 39 8 78 q21 126 51 251 q0 6 -6 9 q-6 2 -8 -3 ZM347 696 l30 -89 q3 -9 6 -17 q10 -35 30 -65 q9 -11 23 -8 q12 4 12 18 q-3 31 -15 60 q-20 47 -49 91 q-6 10 -12 21 q-8 9 -19 4 q-10 -5 -6 -15 ZM642 706 q-24 -44 -48 -87 q-5 -8 -9 -15 q-11 -18 -19 -37 q-6 -13 -6 -27 q0 -12 10 -17 q9 -5 18 1 q14 9 24 24 q11 18 18 37 q2 5 5 11 q18 49 28 101 q1 9 -9 13 q-8 3 -12 -4 ZM171 697 q9 -10 19 -20 q20 -18 37 -39 q24 -32 52 -61 q6 -6 14 -2 q9 5 8 15 q-8 42 -39 73 q-35 36 -83 48 q-7 0 -10 -5 q-2 -5 2 -9 ZM88 476 q26 -10 50 -25 q28 -17 59 -28 q12 -4 19 7 q8 13 -1 25 q-24 21 -55 29 q-34 8 -70 8 q-7 -1 -9 -7 q0 -7 7 -9 Z" /><glyph glyph-name="" unicode="&#x70b9;" d="M172 579 q-15 -86 -16 -173 q-2 -76 10 -150 q2 -16 18 -16 q17 2 24 18 q186 -31 373 0 q15 -9 31 -1 q15 8 15 25 q-6 113 4 227 q0 10 -8 17 q-9 8 -20 10 q-103 7 -206 11 q3 39 -1 78 q-2 14 -2 28 q-2 11 -1 23 q84 -7 169 -3 q19 3 22 24 q1 17 -16 22 q-90 14 -178 -7 q-5 39 -12 78 q-3 10 -14 9 q-12 -2 -14 -13 q-4 -72 -4 -143 q-1 -17 -2 -32 q-4 -32 -2 -64 q-72 -1 -140 -18 l-8 50 q-3 7 -11 8 q-9 0 -11 -8 ZM205 501 q47 -9 96 -13 q62 -3 124 -3 q74 0 148 -2 q-8 -93 -6 -186 q-179 24 -356 -7 q6 105 -6 211 ZM165 176 q-21 -55 -34 -111 q-11 -49 -11 -99 q0 -17 17 -21 q19 -2 28 15 q18 46 25 95 q8 58 10 116 q-1 13 -13 16 q-16 2 -22 -11 ZM302 161 q-22 -60 -32 -122 q-6 -40 2 -82 q4 -16 21 -17 q20 -1 28 17 q6 26 9 52 q3 40 3 81 q-1 33 0 67 q-1 12 -12 15 q-14 1 -19 -11 ZM566 141 q15 -38 28 -76 q19 -58 46 -112 q7 -12 21 -10 q17 5 19 21 q-1 51 -24 98 q-27 53 -68 96 q-8 7 -17 1 q-9 -7 -5 -18 ZM435 149 l4 -109 q-1 -28 6 -53 q5 -17 17 -32 q8 -9 21 -6 q14 4 20 17 q5 16 3 33 q-2 18 -8 37 q-2 5 -3 11 l-33 106 q-5 10 -17 9 q-10 -3 -10 -13 Z" /><glyph glyph-name="" unicode="&#x73b0;" d="M346 438 q-1 -22 -2 -44 q-5 -87 -6 -174 q0 -54 5 -108 q2 -24 25 -27 q26 0 31 27 q6 108 2 217 q-2 54 -2 109 q-1 37 0 74 q2 56 0 113 q-1 46 -9 93 q88 -19 178 -25 q14 -1 28 -2 q5 -132 9 -264 q0 -50 -2 -99 q-4 -99 2 -197 q1 -15 12 -24 q10 -9 24 -11 q26 -1 32 26 q6 47 8 96 q1 68 0 136 q-1 29 -1 58 q-1 10 -1 20 q0 146 -13 291 q-2 14 -12 25 q-10 9 -23 10 q-18 0 -35 0 q-70 1 -140 -3 q-44 -3 -86 -10 q-8 -2 -9 -9 q0 -8 7 -12 q-12 -47 -16 -94 q-4 -58 -5 -117 q0 -38 -1 -75 ZM493 612 q-1 -23 -2 -45 q0 -114 -9 -228 q-7 -68 -22 -134 q-17 -64 -47 -123 q-33 -60 -81 -107 q-10 -9 -10 -22 q1 -13 9 -23 q18 -18 40 -6 q77 55 116 141 q4 -46 25 -86 q18 -34 51 -55 q24 -13 52 -14 q35 2 64 23 q28 22 44 53 q16 32 16 68 q-3 28 -31 33 q-33 0 -38 -33 q-1 -24 -9 -45 q-8 -18 -25 -29 q-23 -14 -48 -5 q-25 13 -37 39 q-31 61 -37 130 q22 94 22 192 q0 138 -17 276 q-3 12 -15 12 q-11 -2 -11 -12 ZM99 374 q42 -1 84 -2 q-6 -123 -1 -246 l0 -2 q-50 -32 -99 -64 q-13 -9 -8 -23 q9 -15 26 -8 q110 50 218 108 q21 14 11 37 q-6 11 -17 17 q-12 4 -24 -2 q-23 -12 -43 -25 q1 105 -1 210 q24 1 48 6 q18 5 18 24 q-3 22 -25 26 q-22 0 -42 -1 q-3 81 -9 163 q19 -4 40 -5 q14 -2 26 7 q10 9 13 22 q3 26 -22 32 q-53 7 -106 10 q-36 1 -70 -3 q-15 -3 -17 -17 q0 -12 12 -16 q44 -17 91 -24 q-13 -88 -17 -175 q-45 -8 -90 -15 q-13 -4 -13 -17 q2 -15 17 -17 Z" /><glyph glyph-name="" unicode="&#x7684;" d="M265 746 q-24 -30 -45 -61 q-19 -27 -39 -53 q-48 -58 -96 -114 q-13 -18 2 -34 q7 -5 15 -4 q8 1 14 7 q25 22 49 47 q-7 -119 -10 -238 q-2 -30 -3 -59 q-5 -69 -5 -138 q0 -49 8 -97 q5 -16 23 -17 q9 -1 17 3 q8 5 10 14 l2 18 q36 -6 74 -7 q34 -4 70 -3 q10 -10 24 -8 q12 1 18 12 q8 4 11 13 q2 11 -5 20 q7 57 9 116 q1 88 -1 177 q-1 30 0 61 q3 61 0 123 q-3 26 -15 51 q-14 25 -39 38 q-27 11 -56 11 q-32 0 -63 -6 q38 52 52 116 q1 9 -7 15 q-9 4 -14 -3 ZM521 787 q-25 -83 -53 -165 q-19 -54 -41 -107 q-7 -18 10 -28 q7 -4 14 -1 q6 3 10 10 q33 65 59 135 q66 -5 132 -11 q8 -81 9 -163 q1 -93 -2 -185 q-5 -94 -18 -186 q-6 -35 -18 -68 q-9 -23 -28 -40 q-13 -8 -29 -4 q-22 11 -36 31 q-13 14 -31 7 q-15 -8 -9 -24 q11 -44 44 -76 q24 -21 55 -11 q32 14 53 41 q30 43 47 93 q19 55 26 113 q7 68 8 137 q1 19 2 38 q1 76 -4 151 q-6 87 -15 173 q-2 12 -10 21 q-8 7 -19 8 q-75 1 -147 -14 q18 59 17 122 q-3 10 -14 11 q-10 0 -12 -8 ZM206 296 q-2 20 -1 42 q64 -7 130 -6 q-9 -138 6 -275 q-24 -1 -46 -2 q-43 -3 -85 -9 q6 100 -2 200 q-1 25 -2 50 ZM205 579 q56 2 111 -11 q8 -3 13 -9 q9 -12 12 -26 q5 -40 0 -81 q-1 -13 -1 -25 l-4 -60 q-67 1 -133 -5 q-4 100 -12 200 q7 8 14 17 ZM487 437 q2 -32 8 -63 q4 -27 8 -54 q1 -17 2 -34 q1 -46 13 -90 q3 -11 13 -17 q9 -6 20 -6 q21 2 27 23 q4 26 1 53 q-5 40 -14 79 q-10 39 -27 75 q-12 23 -30 42 q-7 5 -15 2 q-6 -3 -6 -10 Z" /><glyph glyph-name="" unicode="&#x77e5;" d="M481 -19 q6 0 12 -1 q49 -8 99 -11 q37 -1 75 3 q10 2 13 12 q4 11 -1 20 q4 7 5 16 q5 103 4 207 q-2 145 -8 290 q-2 62 -4 125 q-2 21 -23 23 q-89 0 -176 -15 q-3 -1 -5 -2 q-11 -1 -13 -10 q-7 -49 -9 -99 q-1 -60 1 -119 q0 -40 1 -79 q-1 -161 3 -321 q-1 -15 13 -22 q-2 -14 13 -17 ZM509 20 q0 160 -6 321 q-1 28 -1 56 q0 67 -3 134 q-2 48 -9 95 q69 1 139 -5 q-1 -21 -2 -41 q-7 -160 -9 -321 q-2 -120 5 -239 l0 -4 q-59 1 -116 -6 q1 4 2 10 ZM126 381 q61 -15 125 -20 q-44 -214 -141 -409 q-10 -22 12 -35 q20 -7 32 10 q115 200 145 431 q59 -4 118 6 q14 3 15 18 q0 17 -15 23 q-56 10 -112 11 q9 105 -1 210 q37 -2 74 -4 q21 0 24 21 q1 11 -5 20 q-8 9 -19 10 q-18 0 -35 0 q-43 3 -86 1 q-30 -1 -58 -8 q1 41 -2 82 q-2 12 -14 14 q-14 0 -16 -14 q-14 -134 -42 -264 q-3 -21 16 -29 q23 -6 32 16 q23 84 26 172 q38 -13 79 -16 q-2 -107 -17 -212 q-68 -4 -135 -13 q-8 -2 -8 -10 q-1 -9 8 -11 ZM307 286 q7 -46 16 -91 q25 -124 38 -250 q1 -13 9 -22 q11 -11 26 -10 q15 1 26 11 q10 14 7 30 q-19 93 -47 184 q-24 80 -60 155 q-4 5 -10 3 q-6 -3 -5 -10 Z" /><glyph glyph-name="" unicode="&#x79d2;" d="M102 468 q58 -1 116 -3 q-72 -190 -135 -382 q-6 -23 15 -32 q10 -4 21 0 q11 5 16 17 q42 131 84 264 q-4 -218 7 -434 q3 -28 32 -28 q25 4 27 28 q5 282 -8 565 q36 -1 72 2 q20 2 23 22 q0 25 -23 28 q-38 -1 -75 -2 l-6 117 q35 16 66 43 q8 9 2 19 q-9 11 -22 7 q-33 -18 -69 -27 q-4 -1 -6 -2 q-48 -12 -97 -15 q-21 -2 -24 -22 q0 -24 24 -27 q43 -4 85 9 q-3 -53 -4 -106 q-61 -7 -121 -8 q-14 -2 -16 -16 q0 -16 16 -17 ZM612 423 q-3 -10 -5 -19 q-14 -74 -35 -147 q-16 -55 -42 -106 q-27 -50 -63 -93 q-55 -61 -117 -116 q-19 -19 -5 -42 q7 -11 20 -16 q14 -3 27 3 q68 44 118 107 q53 67 85 147 q32 78 39 163 q4 60 -7 119 q-2 5 -8 5 q-6 1 -7 -5 ZM503 749 q-4 -202 -7 -403 q1 -24 24 -27 q11 0 21 6 q9 8 10 21 q-3 201 -17 403 q-4 14 -18 14 q-13 -2 -13 -14 ZM304 388 q21 -56 34 -115 q13 -67 22 -135 q3 -20 6 -39 q5 -23 28 -22 q11 1 21 8 q8 8 9 21 q-4 72 -26 141 q-26 79 -64 153 q-9 11 -22 5 q-11 -6 -8 -17 ZM598 616 q27 -59 51 -119 q21 -53 44 -105 q11 -22 33 -12 q11 5 17 16 q5 13 0 26 q-20 43 -45 85 q-38 61 -79 121 q-6 7 -16 4 q-9 -6 -5 -16 ZM416 631 q-18 -124 -28 -247 q0 -19 19 -22 q22 -1 26 22 q3 123 0 247 q-1 7 -8 8 q-8 0 -9 -8 Z" /><glyph glyph-name="" unicode="&#x79f0;" d="M94 483 q49 -13 100 -15 q-40 -86 -64 -176 q-27 -104 -44 -209 q-1 -22 18 -31 q9 -3 17 0 q7 4 11 12 q22 52 35 107 q15 69 26 139 q7 46 15 93 l-2 -122 q-2 -51 -5 -102 q-6 -77 -8 -155 q0 -62 9 -125 q4 -15 21 -17 q9 0 16 4 q8 5 10 13 q8 52 10 103 q2 80 -1 161 q-3 65 -4 132 q0 85 1 172 q36 0 73 3 q24 4 25 29 q-4 22 -25 24 q-37 1 -74 1 q-2 77 -10 155 l82 15 q10 2 10 13 q-2 13 -14 15 q-92 2 -182 -9 q-12 -3 -18 -13 q-3 -10 0 -21 q9 -22 32 -18 q32 7 66 14 q-9 -77 -10 -153 q-59 -3 -116 -18 q-7 -3 -8 -10 q0 -9 8 -11 ZM506 609 q-13 -119 -14 -238 q-1 -140 3 -280 q1 -40 3 -79 q-12 18 -23 38 q-15 19 -37 7 q-17 -14 -7 -33 l74 -127 q10 -15 28 -12 q21 5 24 26 q5 211 -3 422 q-7 140 -30 279 q-2 6 -9 6 q-8 -2 -9 -9 ZM415 753 q-11 -104 -54 -198 q-7 -23 14 -35 q18 -7 28 11 q26 64 36 134 q95 -8 192 -3 q-37 -44 -72 -88 q-12 -19 4 -34 q8 -7 19 -8 q12 -1 21 8 q49 50 85 109 q10 15 20 30 q7 11 1 24 q-9 14 -24 16 q-123 1 -243 -19 q1 26 2 53 q-1 12 -13 13 q-14 0 -16 -13 ZM613 360 q-1 -47 6 -93 q4 -31 7 -61 q5 -78 8 -156 q3 -26 28 -30 q31 0 36 30 q4 87 -11 174 q-13 75 -49 142 q-5 7 -14 6 q-10 -3 -11 -12 ZM278 402 q-1 -131 29 -258 q2 -11 11 -15 q9 -5 19 -3 q19 4 19 24 q-14 130 -57 255 q-4 8 -13 7 q-8 -2 -8 -10 ZM418 457 q-2 -9 -3 -17 q-10 -68 -18 -135 q-6 -51 -6 -101 q0 -22 21 -25 q25 0 30 25 q3 74 3 149 q0 50 1 100 q-2 12 -15 14 q-11 0 -13 -10 Z" /><glyph glyph-name="" unicode="&#x7eed;" d="M483 493 q-11 -67 -15 -134 q-6 -76 -18 -151 l0 -1 q-91 -7 -181 -14 q-10 -2 -12 -11 q0 -12 12 -13 l171 -5 q-27 -95 -64 -185 q-9 -23 -17 -47 q-5 -12 2 -24 q7 -11 19 -15 q26 -7 40 14 q61 121 87 256 q76 -2 153 -2 q25 1 28 27 q1 12 -6 22 q-9 10 -22 10 l-144 -9 q11 77 8 156 q-2 64 -18 126 q-4 8 -13 8 q-9 -1 -10 -8 ZM327 544 q87 -14 175 -21 q78 -6 156 0 l-43 -86 q-6 -12 -1 -24 q5 -10 16 -15 q21 -8 33 12 l63 131 q5 12 0 25 q-5 11 -16 14 q-98 14 -195 7 q1 36 2 74 q53 -2 106 5 q19 2 23 21 q-1 23 -23 28 q-55 5 -109 4 q-3 36 -8 72 q-2 8 -11 8 q-10 -2 -12 -11 l-6 -71 q-8 -1 -16 -1 q-32 1 -64 -4 q-19 -3 -36 -11 q-5 -4 -6 -11 q0 -7 6 -10 q15 -9 33 -12 q25 -4 50 -4 q11 0 22 0 q3 -1 6 -1 q-4 -41 -8 -80 q-69 -8 -137 -20 q-7 -2 -8 -9 q0 -8 8 -10 ZM289 573 q-31 -41 -53 -86 q-7 0 -12 -1 q-24 -9 -49 -13 q47 129 91 261 q1 10 -9 13 q-9 3 -13 -4 q-71 -143 -137 -288 q-7 -16 1 -32 q8 -12 24 -12 q35 0 71 8 l-18 -39 q-7 -14 -13 -28 q-26 -56 -49 -112 q-15 -35 -25 -71 q-4 -19 12 -31 q14 -10 29 0 q70 53 133 115 q15 18 0 37 q-8 8 -19 10 q-12 1 -21 -7 l-41 -43 q14 42 31 84 q8 22 18 45 q22 53 42 107 q13 39 21 79 q0 6 -5 9 q-5 3 -9 -1 ZM528 117 q27 -47 50 -95 q13 -25 21 -52 q8 -24 19 -48 q13 -22 38 -14 q12 4 19 15 q7 12 4 25 q-17 52 -51 93 q-39 48 -88 86 q-6 3 -11 -1 q-4 -4 -1 -9 ZM139 -75 q31 15 54 40 q6 7 13 12 q40 37 77 80 q15 22 -5 42 q-18 14 -35 -2 q-34 -38 -65 -77 q-3 -3 -5 -5 q-18 -18 -33 -39 q-11 -17 -16 -36 q-2 -7 3 -12 q5 -4 12 -3 ZM321 374 q4 -26 17 -48 q4 -8 8 -16 q15 -35 37 -66 q16 -20 39 -8 q17 14 7 34 q-19 31 -42 59 q-4 4 -7 8 q-19 27 -45 48 q-6 3 -10 -1 q-5 -4 -4 -10 ZM351 481 q24 -60 57 -116 q11 -19 31 -10 q9 5 14 14 q3 11 -3 21 q-38 53 -81 102 q-7 5 -14 0 q-7 -4 -4 -11 Z" /><glyph glyph-name="" unicode="&#x8981;" d="M197 745 q-17 -3 -17 -19 q2 -14 17 -14 q53 1 107 2 l0 -3 l-3 -74 q-57 -5 -113 -14 q-4 12 -18 12 q-7 0 -14 -3 q-6 -4 -7 -10 q-9 -77 -11 -155 q-1 -39 -2 -77 q-1 -13 12 -18 q15 -6 30 0 q88 -1 176 -4 q134 -6 268 -5 q7 -1 14 3 q22 0 28 21 q5 27 6 54 q1 45 -1 90 q-2 36 -1 72 q-1 11 -9 19 q-9 9 -22 11 q-67 5 -134 9 l-4 64 q41 -3 82 -7 q21 -1 24 21 q0 25 -24 30 q-193 13 -384 -5 ZM112 276 q-10 -2 -12 -12 q0 -11 12 -11 q94 -11 189 -13 l-32 -81 q-7 -16 -11 -33 q-4 -13 -2 -26 q5 -27 27 -45 q36 -34 79 -60 q-45 -20 -94 -21 q-42 -1 -80 16 q-27 10 -42 -14 q-9 -23 12 -37 q57 -30 123 -25 q75 5 136 49 q86 -47 184 -64 q27 -2 35 24 q2 11 -4 20 q-6 7 -15 10 q-79 21 -152 54 q32 45 45 100 q14 64 16 131 q75 0 150 -1 q23 0 26 24 q1 12 -5 21 q-9 10 -21 10 q-155 -2 -308 -2 q7 26 15 53 q-2 11 -13 14 q-10 3 -17 -3 q-17 -32 -31 -65 q-106 -2 -210 -13 ZM498 238 q-2 -8 -4 -15 q-12 -59 -33 -115 q-16 -42 -46 -75 q-27 13 -51 30 q-18 7 -33 17 q-11 6 -17 16 q-1 6 0 12 q2 12 5 24 q15 53 33 106 q72 -1 146 0 ZM187 597 q56 -6 113 -8 q-4 -88 3 -174 q-56 -2 -111 -6 q-5 93 -5 188 ZM458 584 q-4 -81 -1 -161 q-1 -4 1 -7 q-52 1 -103 0 q0 85 -8 171 l111 -3 ZM605 575 q2 -81 3 -162 l-101 3 q0 3 1 7 q3 79 -1 159 q49 -3 98 -7 ZM334 714 q65 -2 130 -5 l0 -3 l-3 -63 q-61 1 -120 -3 l-7 71 l0 3 Z" /><glyph glyph-name="" unicode="&#x8ba1;" d="M518 773 q-17 -136 -16 -272 l-156 -10 q-11 -2 -13 -12 q0 -12 13 -13 q77 -8 155 -12 q0 -60 -1 -119 q-1 -56 -4 -111 q-4 -84 -4 -168 q0 -67 10 -135 q5 -18 24 -20 q10 0 19 5 q9 5 11 15 q7 55 8 109 q2 83 -3 167 q-3 69 -4 138 q-2 57 -1 116 q75 -3 150 3 q20 2 23 22 q0 23 -23 27 q-75 2 -150 0 q-1 135 -17 270 q-1 8 -10 10 q-10 0 -11 -10 ZM163 454 q41 6 80 25 q-26 -128 -44 -256 q-2 -8 -3 -15 q-10 -60 -13 -120 q-1 -44 11 -87 q8 -33 28 -61 q14 -19 38 -24 q29 -2 47 21 q10 15 16 33 q7 20 11 41 q2 24 -22 31 q-20 2 -28 -17 q-1 -2 -1 -4 q-3 -17 -9 -32 q-4 -9 -12 -8 q-7 7 -10 17 q-6 15 -8 33 q-7 27 -6 56 q1 34 6 67 q1 9 3 19 q15 129 40 257 q9 47 18 94 q1 17 -13 29 q-13 9 -26 1 q-52 -42 -114 -63 q-16 -6 -13 -22 q5 -18 24 -15 ZM214 748 q15 -31 23 -65 q7 -39 25 -73 q8 -14 25 -11 q14 2 17 17 q4 41 -16 77 q-23 42 -61 70 q-7 3 -12 -3 q-4 -6 -1 -12 Z" /><glyph glyph-name="" unicode="&#x8f93;" d="M90 82 q44 8 88 22 q0 -90 6 -179 q2 -23 25 -27 q27 0 31 27 q4 100 5 202 q36 14 70 34 q4 2 7 6 q-7 -118 -8 -236 q0 -23 24 -27 q27 0 32 27 q3 79 2 159 q28 -8 58 -10 q1 -1 3 -1 q-3 -68 0 -134 q2 -27 28 -31 q31 1 38 31 q8 88 7 176 q-3 105 -10 209 q-2 29 -4 59 q-1 5 -1 10 q0 28 -6 54 q-5 15 -17 25 q-18 8 -37 6 q-31 -3 -61 -11 q-11 -2 -21 -4 q-3 -1 -5 -2 q-8 -2 -8 -9 q-6 -132 -12 -263 q-14 18 -34 10 l-45 -23 q-2 58 -5 117 l54 3 q8 0 15 5 q7 7 8 16 q-1 23 -23 28 q-29 3 -58 5 q-8 83 -21 167 q-2 4 -7 5 q-6 0 -7 -5 q-12 -83 -16 -166 l-49 0 q30 114 60 230 q44 -5 90 -3 q24 1 28 25 q0 29 -28 33 q-40 0 -78 -2 q13 63 23 127 q0 10 -10 12 q-9 1 -11 -7 q-23 -69 -47 -136 q-39 -6 -76 -15 q-5 -2 -6 -8 q0 -6 6 -8 q30 -9 61 -13 q-45 -128 -79 -258 q-3 -16 6 -28 q9 -11 23 -10 q41 1 83 2 q-3 -75 -3 -150 q-47 -23 -95 -41 q-11 -6 -8 -18 q4 -9 15 -7 ZM484 802 q-40 -66 -86 -127 q-37 -51 -73 -104 q-28 -43 -51 -87 q-10 -24 12 -36 q20 -8 32 11 q25 45 53 90 q112 -23 228 -14 q4 0 9 2 q46 -53 104 -93 q17 -10 31 4 q15 19 1 38 q-63 61 -119 130 q-64 77 -133 150 l12 24 q4 10 -6 16 q-9 3 -14 -4 ZM616 493 q-3 -133 -4 -266 q-1 -14 -1 -28 q2 -52 0 -105 q-2 -33 -8 -66 q-5 -26 -19 -47 q-8 -11 -20 -16 q-23 -6 -23 -29 q4 -27 31 -31 q48 -1 71 41 q13 28 16 57 q4 38 5 76 q5 111 -2 222 q-5 98 -24 195 q-3 7 -11 7 q-10 -1 -11 -10 ZM546 399 q-10 -56 -15 -113 q-5 -66 -7 -132 q-1 -19 -1 -37 q1 -27 27 -30 q13 -1 23 6 q11 9 11 24 q-1 9 -1 18 q-1 76 -5 151 q-4 57 -13 113 q-2 6 -9 6 q-8 1 -10 -6 ZM478 738 q38 -87 97 -161 q-98 5 -194 -11 q49 85 97 172 ZM365 280 l70 0 q-1 -20 1 -39 q0 -53 -1 -105 l-5 0 q-30 -5 -59 -11 q-2 77 -6 155 ZM354 445 q4 -1 9 -1 q20 -1 39 -5 q8 -2 15 -7 q6 -7 9 -16 q4 -14 5 -27 l3 -67 l-71 -11 q-4 67 -9 134 Z" /><glyph glyph-name="" unicode="&#x8fd9;" d="M316 612 q58 -11 117 -14 q69 -2 139 2 q-13 -111 -38 -220 q-18 -70 -48 -136 q-39 63 -63 133 q-28 81 -41 166 q-3 10 -14 10 q-13 -2 -14 -14 q-2 -192 98 -355 q-52 -78 -130 -127 q-8 -7 -6 -16 q3 -9 12 -8 q43 6 80 32 q42 32 74 76 q48 -65 116 -109 q24 -14 42 8 q8 11 7 25 q-2 15 -14 25 q-66 43 -114 106 l18 32 q42 80 62 169 q22 101 26 206 l56 3 q25 4 25 30 q-3 22 -25 23 l-138 -2 q-21 75 -83 122 q-12 7 -23 -2 q-11 -11 -4 -25 q28 -46 45 -97 q-82 -3 -162 -14 q-10 -3 -11 -13 q0 -12 11 -16 ZM712 -8 q-77 -28 -159 -36 q-72 -5 -141 17 q-7 3 -14 5 q-49 17 -99 30 q-37 9 -75 12 q13 20 22 43 q10 33 8 68 q-5 39 -17 77 q-9 26 -15 53 q-10 40 -4 82 q8 46 26 91 q1 3 2 6 q10 21 10 45 q-3 29 -25 48 q-15 12 -32 19 q-22 9 -45 15 q-18 1 -25 -14 q-5 -19 13 -26 q33 -5 45 -36 q12 -9 15 -23 q0 -15 -12 -25 q-4 -12 -9 -23 q-7 -15 -10 -31 q-12 -51 -3 -102 q5 -32 17 -62 q9 -26 17 -51 q6 -21 8 -42 q0 -36 -17 -67 q-27 -44 -66 -76 q-10 -10 -2 -21 q7 -10 19 -7 l11 4 q7 -4 17 -4 q31 3 62 -1 q49 -7 96 -21 q38 -12 76 -21 q29 -7 60 -11 q62 -7 124 7 q70 16 134 47 q11 7 8 19 q-6 15 -20 12 ZM168 696 q34 -46 39 -103 q0 -12 7 -21 q9 -9 22 -9 q14 1 23 10 q10 11 8 27 q-8 39 -28 73 q-19 29 -47 49 q-14 5 -24 -6 q-8 -10 0 -20 Z" /><glyph glyph-name="" unicode="&#x9009;" d="M265 57 q44 3 84 24 q31 21 51 53 q25 47 30 100 q7 69 3 139 l80 -4 q-9 -56 -4 -113 q1 -13 2 -26 q-1 -48 6 -95 q5 -31 22 -57 q14 -21 36 -34 q26 -12 54 -5 q27 9 46 31 q19 25 22 58 q-1 7 -7 9 q-8 1 -10 -5 q-17 -22 -33 -43 q-32 9 -64 19 q-7 7 -10 17 q-4 15 -7 31 q-1 6 -1 12 q-7 39 -6 80 q-1 24 -1 48 q0 36 -2 72 q43 -1 87 1 q24 3 27 27 q1 12 -6 22 q-8 10 -21 10 q-68 -2 -134 -8 q2 91 1 182 q52 -3 104 -6 q11 -1 20 5 q9 10 11 23 q1 14 -7 26 q-9 11 -24 12 q-53 -3 -106 -3 q-5 56 -18 111 q-3 3 -7 4 q-5 0 -7 -4 q-16 -56 -18 -113 q-35 -3 -68 -10 q-1 54 -11 109 q-3 10 -14 10 q-12 -2 -13 -13 q-7 -100 -35 -196 q-10 -38 -19 -75 q-2 -23 19 -30 q11 -4 22 -1 q11 3 16 14 q28 74 35 154 q33 -9 67 -12 q2 -96 6 -191 q-81 -9 -162 -15 q-10 -2 -12 -11 q1 -11 12 -12 l87 -3 q1 -73 -5 -145 q-4 -50 -32 -90 q-35 -45 -89 -63 q-9 -4 -7 -13 q2 -8 10 -7 ZM86 491 q11 -5 23 -7 q18 -5 36 -10 q8 -3 15 -7 q8 -8 11 -18 q0 -12 -6 -23 q-3 -6 -5 -12 q-16 -43 -14 -88 q3 -29 12 -57 q14 -45 25 -91 q6 -32 4 -65 q-4 -29 -26 -48 q-20 -13 -42 -17 q-16 -4 -17 -19 q1 -18 17 -24 q98 -41 200 -72 q79 -23 161 -27 q130 -2 241 67 q20 15 11 37 q-15 25 -41 13 q-107 -58 -229 -53 q-67 4 -132 19 q-67 16 -131 38 q17 15 26 36 q8 24 11 48 q2 36 -3 72 q-6 42 -16 84 q-20 73 6 146 q1 4 2 8 q6 15 8 31 q0 11 -3 21 q-9 25 -34 35 q-16 6 -32 8 q-27 2 -55 1 q-9 -1 -18 -1 q-9 -1 -12 -10 q-1 -10 7 -15 ZM166 729 q-5 -31 2 -62 q10 -47 28 -91 q12 -27 38 -16 q21 13 13 37 q-16 35 -26 72 q-4 11 -6 22 q-4 22 -13 43 q-8 11 -22 9 q-12 -3 -14 -14 Z" /><glyph glyph-name="" unicode="&#x9053;" d="M246 615 q66 -6 133 -8 q2 -1 5 -1 l57 -2 q-31 -49 -65 -93 q-20 -4 -39 -9 q-8 2 -15 -2 q-6 -5 -7 -12 q-19 -128 -30 -257 q-7 -85 -6 -171 q-5 -10 1 -19 q1 -16 16 -21 q18 -4 30 10 q143 -21 289 -20 q17 0 23 15 q5 18 -8 31 q23 212 6 425 q-2 10 -7 18 q-6 8 -15 10 q-86 13 -171 10 q23 40 41 84 l191 -6 q12 -1 20 8 q7 9 6 21 q-3 23 -26 26 q-46 0 -91 1 q16 58 27 118 q1 14 -12 20 q-12 4 -18 -7 q-7 -13 -13 -26 q-26 -51 -44 -105 q-20 -1 -40 -1 l-8 0 l-69 -3 q-3 12 -6 24 q-5 29 -14 58 q-6 19 -15 38 q-6 7 -16 6 q-9 -2 -11 -10 q-4 -20 -3 -40 q1 -24 6 -49 q2 -16 5 -31 q-55 -6 -109 -14 q-7 -2 -6 -8 q1 -7 8 -8 ZM83 525 q26 -9 50 -23 q16 -10 23 -27 q1 -9 -1 -17 q-4 -15 -10 -30 q-4 -10 -7 -20 q-19 -64 -20 -130 q3 -39 14 -77 q13 -52 21 -105 q5 -35 1 -71 q-4 -17 -15 -31 q-13 -12 -31 -15 q-19 -1 -23 -20 q1 -21 23 -25 q24 -3 48 4 q21 8 34 26 q25 0 51 -6 q44 -12 85 -30 q34 -14 69 -26 q25 -8 51 -12 q72 -7 141 16 q80 26 147 75 q15 14 7 32 q-3 8 -11 11 q-8 1 -14 -1 q-30 -12 -58 -25 q-56 -29 -116 -48 q-43 -10 -86 -6 q-27 3 -53 10 q-35 10 -68 22 q-64 24 -131 21 q7 39 3 79 q-6 56 -20 112 q-4 17 -7 35 q-9 39 -8 80 q3 46 13 92 q2 11 5 22 q6 19 9 38 q3 15 1 30 q-7 26 -32 40 q-38 19 -79 25 q-13 1 -16 -10 q-1 -11 10 -15 ZM341 327 q119 -20 241 -21 l-4 -97 q-120 2 -239 3 l2 115 ZM346 465 q23 -1 46 -1 q93 0 187 -10 q2 -46 3 -92 q-120 8 -240 3 q1 50 4 100 ZM338 177 q117 -20 237 -24 l-3 -85 q-120 12 -239 3 q3 52 5 106 ZM204 578 q0 36 -10 72 q-11 40 -29 78 q-12 19 -33 10 q-10 -5 -15 -15 q-4 -11 3 -21 q30 -48 51 -101 q6 -13 12 -26 q3 -9 12 -8 q8 2 9 11 Z" /><glyph glyph-name="" unicode="&#x91cc;" d="M170 143 q100 -6 202 -10 q-2 -78 0 -154 q-69 2 -137 -4 q-58 -4 -114 -17 q-9 -3 -9 -13 q0 -9 9 -12 q70 -12 142 -16 q110 -5 220 -3 q91 1 182 -1 q20 1 22 21 q0 23 -22 27 q-117 9 -233 16 q1 76 1 154 q100 -3 200 11 q6 1 11 5 q5 7 5 15 q-4 19 -22 23 q-97 10 -194 7 q0 54 -1 108 q90 -3 180 14 q13 -3 25 6 q9 9 9 23 q-9 185 -2 372 q-4 24 -28 27 q-57 -1 -114 1 q-87 3 -174 2 q-71 -2 -140 -13 q-3 13 -16 15 q-15 0 -17 -15 q-18 -122 -19 -246 q-1 -81 17 -159 q3 -11 14 -14 q12 -3 21 6 q92 -11 185 -16 q-1 -57 -1 -113 q-102 -7 -202 -14 q-14 -2 -17 -15 q0 -17 17 -18 ZM193 694 q94 -14 190 -12 q-8 -70 -9 -139 q-84 -4 -167 -11 q-4 81 -14 162 ZM587 687 q-3 -73 -4 -145 q-77 5 -154 4 q-1 68 -11 137 l169 4 ZM208 494 q82 -8 165 -12 l0 -120 q-89 -5 -176 -11 q12 70 11 143 ZM585 359 q-77 7 -153 6 q0 58 -1 116 q76 -2 152 6 q-1 -65 2 -128 Z" /><glyph glyph-name="" unicode="&#xff01;" d="M218 184 q22 258 28 518 q-3 14 -10 27 q-14 13 -32 16 q-19 1 -34 -9 q-17 -14 -15 -34 q4 -260 27 -518 q-2 -17 15 -18 q7 -2 13 3 q6 6 8 15 ZM229 -16 q16 15 18 37 q-1 21 -16 36 q-16 13 -35 9 q-18 -6 -26 -22 q-7 -16 -5 -32 q2 -17 16 -28 q11 -7 25 -8 q2 3 6 1 l17 7 Z" /><glyph glyph-name="" unicode="&#xff1a;" d="M167 41 q25 -23 56 -9 q26 13 28 43 q-2 28 -23 48 q-20 16 -44 12 q-17 -5 -28 -18 q-8 -12 -8 -26 q-2 -11 4 -20 q1 -18 15 -30 ZM167 424 q25 -23 56 -9 q26 13 28 43 q-2 28 -23 48 q-20 16 -44 12 q-17 -5 -28 -18 q-8 -12 -8 -26 q-2 -11 4 -20 q1 -18 15 -30 Z" /></font>
</defs>
</svg>
